<svg id="Bettary_icon" xmlns="http://www.w3.org/2000/svg" width="9.372" height="15.378" viewBox="0 0 9.372 15.378">
  <path id="Path_19" data-name="Path 19" d="M167.074,238.045a.9.9,0,0,1,.939-.854h2.811a.9.9,0,0,1,.939.854h1.171a1.128,1.128,0,0,1,1.171,1.069V251.5a1.126,1.126,0,0,1-1.171,1.067H165.9a1.126,1.126,0,0,1-1.171-1.067V239.114a1.126,1.126,0,0,1,1.171-1.069Zm3.749,0h-2.811v.856H165.9a.221.221,0,0,0-.234.213V251.5a.222.222,0,0,0,.234.213h7.03a.223.223,0,0,0,.234-.213V239.114a.222.222,0,0,0-.234-.213h-2.11v-.856Z" transform="translate(-164.732 -237.191)" fill="#1c1c1c" fill-rule="evenodd"/>
  <path id="Path_20" data-name="Path 20" d="M166.562,253.237v-6.161a.449.449,0,0,1,.469-.428h5.66a.45.45,0,0,1,.469.428v6.161a.45.45,0,0,1-.469.429h-5.66A.449.449,0,0,1,166.562,253.237Z" transform="translate(-165.175 -239.478)" fill="#1c1c1c" fill-rule="evenodd"/>
</svg>
