<svg xmlns="http://www.w3.org/2000/svg" width="16.016" height="16.017" viewBox="0 0 16.016 16.017">
  <g id="edit_icon" data-name="edit icon" opacity="0.998">
    <path id="Path_30" data-name="Path 30" d="M228.7,638.555l-4-4a.67.67,0,0,0-.947,0l-1.529,1.528.948.948,3.063,3.062.941.941L228.7,639.5A.674.674,0,0,0,228.7,638.555Z" transform="translate(-212.875 -634.355)" fill="#1e5bf7"/>
    <path id="Path_31" data-name="Path 31" d="M223.358,637.647l-.947-.947-7.534,7.533a.688.688,0,0,0-.187.38l-.668,4.671a.691.691,0,0,0,.187.567.676.676,0,0,0,.474.193.438.438,0,0,0,.093-.007l4.671-.668a.681.681,0,0,0,.381-.187l7.534-7.533-.941-.941Z" transform="translate(-214.017 -634.029)" fill="#1e5bf7"/>
  </g>
</svg>
