<svg xmlns="http://www.w3.org/2000/svg" xmlns:xlink="http://www.w3.org/1999/xlink" width="46.621" height="46.685" viewBox="0 0 46.621 46.685">
  <defs>
    <filter id="Path_300" x="0" y="0" width="46.621" height="46.685" filterUnits="userSpaceOnUse">
      <feOffset dy="2" input="SourceAlpha"/>
      <feGaussianBlur stdDeviation="1.5" result="blur"/>
      <feFlood flood-opacity="0.161"/>
      <feComposite operator="in" in2="blur"/>
      <feComposite in="SourceGraphic"/>
    </filter>
    <filter id="Path_313" x="7.146" y="6.837" width="31.897" height="30.879" filterUnits="userSpaceOnUse">
      <feOffset dy="2" input="SourceAlpha"/>
      <feGaussianBlur stdDeviation="1.5" result="blur-2"/>
      <feFlood flood-opacity="0.161"/>
      <feComposite operator="in" in2="blur-2"/>
      <feComposite in="SourceGraphic"/>
    </filter>
  </defs>
  <g id="star_icon" transform="translate(-10.885 12.171) rotate(-30)">
    <g transform="matrix(0.87, 0.5, -0.5, 0.87, 15.51, -5.1)" filter="url(#Path_300)">
      <path id="Path_300-2" data-name="Path 300" d="M36.612,18.256c.306,10.079-8.245,18.413-18.229,18.429A18.4,18.4,0,0,1,0,18.23,18.545,18.545,0,0,1,18.564,0C28.263.08,36.907,8.519,36.612,18.256ZM17.9,1.049c-.946.158-2.3.331-3.622.615A15.436,15.436,0,0,0,8.642,4.159,18.013,18.013,0,0,0,4.91,7.674a15.965,15.965,0,0,0-2.726,4.933,15.244,15.244,0,0,0-.905,7.5,21.39,21.39,0,0,0,1.842,6.138,16.722,16.722,0,0,0,6.394,6.837,17.469,17.469,0,0,0,9.162,2.5c.651,0,1.3-.23,1.956-.233a11.032,11.032,0,0,0,4.081-1A17.015,17.015,0,0,0,33,27.265a17.821,17.821,0,0,0,2.539-9.29c.01-.65-.236-1.3-.232-1.955a11.209,11.209,0,0,0-1.134-4.314,16.584,16.584,0,0,0-3.843-5.627C26.965,2.823,22.915,1.327,17.9,1.049Z" transform="translate(5 3)" stroke="#000" stroke-linecap="round" stroke-width="1" stroke-dasharray="1 3"/>
    </g>
    <g transform="matrix(0.87, 0.5, -0.5, 0.87, 15.51, -5.1)" filter="url(#Path_313)">
      <path id="Path_313-2" data-name="Path 313" d="M20.959,7.4a5.793,5.793,0,0,1-2.208,2.1c-.965.76-2.027,1.395-3.008,2.135-.845.637-.936,1.036-.6,2.057.566,1.714,1.15,3.422,1.718,5.135.093.28.15.572.279,1.079a4.582,4.582,0,0,1-.935-.357c-1.606-1.155-3.186-2.349-4.8-3.494-.854-.606-.93-.567-1.731.018-1.635,1.193-3.27,2.386-4.918,3.56a2.739,2.739,0,0,1-.8.213c.4-1.219.755-2.289,1.11-3.358.36-1.085.708-2.175,1.09-3.253A1.085,1.085,0,0,0,5.618,11.8C3.791,10.521,2.014,9.166,0,7.678A5.431,5.431,0,0,1,1.036,7.41C2.892,7.393,4.748,7.4,6.6,7.4c1.383,0,1.391-.01,1.853-1.371C9.118,4.077,9.772,2.123,10.486,0a5.021,5.021,0,0,1,.55.923c.572,1.8,1.11,3.62,1.666,5.43.259.846.5,1.035,1.436,1.043,1.768.015,3.535,0,5.3,0Z" transform="translate(12.78 10.51)" stroke="#000" stroke-linecap="round" stroke-width="1" stroke-dasharray="1 3"/>
    </g>
  </g>
</svg>
