<svg xmlns="http://www.w3.org/2000/svg" width="25.674" height="25.674" viewBox="0 0 25.674 25.674">
  <g id="user_icon" transform="translate(0 0)">
    <path id="Path_33" data-name="Path 33" d="M110.876,660.271a3.851,3.851,0,1,1-3.851-3.852A3.851,3.851,0,0,1,110.876,660.271Z" transform="translate(-94.187 -648.396)" fill="#1c1c1c"/>
    <path id="Path_34" data-name="Path 34" d="M91.548,658.877a12.837,12.837,0,1,1,12.838,12.837A12.837,12.837,0,0,1,91.548,658.877Zm12.838-11.232a11.232,11.232,0,0,0-8.425,18.661,7.482,7.482,0,0,1,6.286-3.417h4.279a7.482,7.482,0,0,1,6.286,3.417,11.233,11.233,0,0,0-8.425-18.661Z" transform="translate(-91.548 -646.04)" fill="#1c1c1c" fill-rule="evenodd"/>
  </g>
</svg>
