<svg xmlns="http://www.w3.org/2000/svg" xmlns:xlink="http://www.w3.org/1999/xlink" width="34.749" height="34.68" viewBox="0 0 34.749 34.68">
  <defs>
    <filter id="Path_299" x="0" y="0" width="34.749" height="34.68" filterUnits="userSpaceOnUse">
      <feOffset dy="2" input="SourceAlpha"/>
      <feGaussianBlur stdDeviation="1.5" result="blur"/>
      <feFlood flood-opacity="0.161"/>
      <feComposite operator="in" in2="blur"/>
      <feComposite in="SourceGraphic"/>
    </filter>
    <filter id="Path_311" x="10.019" y="6.493" width="17.532" height="19.669" filterUnits="userSpaceOnUse">
      <feOffset dy="2" input="SourceAlpha"/>
      <feGaussianBlur stdDeviation="1.5" result="blur-2"/>
      <feFlood flood-opacity="0.161"/>
      <feComposite operator="in" in2="blur-2"/>
      <feComposite in="SourceGraphic"/>
    </filter>
    <filter id="Path_312" x="7.619" y="11.827" width="10.855" height="14.019" filterUnits="userSpaceOnUse">
      <feOffset dy="2" input="SourceAlpha"/>
      <feGaussianBlur stdDeviation="1.5" result="blur-3"/>
      <feFlood flood-opacity="0.161"/>
      <feComposite operator="in" in2="blur-3"/>
      <feComposite in="SourceGraphic"/>
    </filter>
  </defs>
  <g id="like_d_icon" data-name="like d icon" transform="translate(-6.62 8.92) rotate(-30)" opacity="0.5">
    <g transform="matrix(0.87, 0.5, -0.5, 0.87, 10.19, -4.42)" filter="url(#Path_299)">
      <path id="Path_299-2" data-name="Path 299" d="M12.79,25.679A12.839,12.839,0,1,1,22.068,3.837a12.217,12.217,0,0,1,3.68,8.823,12.385,12.385,0,0,1-4.027,9.424A12.509,12.509,0,0,1,12.79,25.679Zm12.1-12.824A12.09,12.09,0,0,0,12.963.776a11.643,11.643,0,0,0-8.5,3.442,12.637,12.637,0,0,0-3.719,8.7C1.1,19.486,5.82,24.77,12.725,24.883A11.979,11.979,0,0,0,24.893,12.856Z" transform="translate(4.5 2.5)"/>
    </g>
    <g transform="matrix(0.87, 0.5, -0.5, 0.87, 10.19, -4.42)" filter="url(#Path_311)">
      <path id="Path_311-2" data-name="Path 311" d="M4.187,10.669c-1.1-.087-2.205-.169-3.307-.262-.6-.051-.847-.274-.86-.86C0,8.5-.014,7.445.033,6.4a1.517,1.517,0,0,1,.381-.909A27.434,27.434,0,0,0,2.905,1.83c.315-.455.584-.944.9-1.4A.878.878,0,0,1,5.02.124c.544.281.661.52.483,1.13-.145.5-.314.993-.505,1.476s-.042.859.459.962a1.264,1.264,0,0,0,.731,0,2.258,2.258,0,0,1,1.447.044,1.052,1.052,0,0,1,.842,1.45c-.315,1.246-.622,2.5-.835,3.763-.189,1.123-.553,1.717-1.874,1.648-.524-.027-1.05,0-1.575,0Z" transform="translate(14.52 8.99)"/>
    </g>
    <g transform="matrix(0.87, 0.5, -0.5, 0.87, 10.19, -4.42)" filter="url(#Path_312)">
      <path id="Path_312-2" data-name="Path 312" d="M1.849,2.52c0,.586.014,1.173,0,1.758s-.132.7-.7.735c-.184.011-.37,0-.555,0A.526.526,0,0,1,0,4.442Q0,2.5.006.555A.506.506,0,0,1,.518.011,4.563,4.563,0,0,1,.981,0c.756.01.849.1.867.852C1.86,1.409,1.85,1.964,1.849,2.52Z" transform="translate(12.12 14.33)"/>
    </g>
  </g>
</svg>
