<svg xmlns="http://www.w3.org/2000/svg" xmlns:xlink="http://www.w3.org/1999/xlink" width="30.986" height="31.025" viewBox="0 0 30.986 31.025">
  <defs>
    <filter id="Path_300" x="0" y="0" width="30.986" height="31.025" filterUnits="userSpaceOnUse">
      <feOffset dy="2" input="SourceAlpha"/>
      <feGaussianBlur stdDeviation="1.5" result="blur"/>
      <feFlood flood-opacity="0.161"/>
      <feComposite operator="in" in2="blur"/>
      <feComposite in="SourceGraphic"/>
    </filter>
    <filter id="Path_313" x="4.669" y="4.51" width="21.583" height="20.949" filterUnits="userSpaceOnUse">
      <feOffset dy="2" input="SourceAlpha"/>
      <feGaussianBlur stdDeviation="1.5" result="blur-2"/>
      <feFlood flood-opacity="0.161"/>
      <feComposite operator="in" in2="blur-2"/>
      <feComposite in="SourceGraphic"/>
    </filter>
  </defs>
  <g id="star_icon_small" data-name="star icon small" transform="translate(-5.037 8.006) rotate(-30)">
    <g transform="matrix(0.87, 0.5, -0.5, 0.87, 8.37, -4.42)" filter="url(#Path_300)">
      <path id="Path_300-2" data-name="Path 300" d="M21.981,10.96A10.991,10.991,0,1,1,0,10.945,11.134,11.134,0,0,1,11.145,0C16.968.048,22.158,5.115,21.981,10.96ZM10.746.63c-.568.095-1.379.2-2.175.369A9.267,9.267,0,0,0,5.188,2.5a10.814,10.814,0,0,0-2.241,2.11A9.585,9.585,0,0,0,1.311,7.569a9.152,9.152,0,0,0-.543,4.5,12.842,12.842,0,0,0,1.106,3.685,10.039,10.039,0,0,0,3.839,4.1,10.488,10.488,0,0,0,5.5,1.5c.391,0,.782-.138,1.174-.14a6.623,6.623,0,0,0,2.45-.6,10.215,10.215,0,0,0,4.974-4.256,10.7,10.7,0,0,0,1.524-5.578c.006-.39-.141-.783-.139-1.174a6.73,6.73,0,0,0-.681-2.59A9.956,9.956,0,0,0,18.207,3.65,11.013,11.013,0,0,0,10.746.63Z" transform="translate(4.5 2.5)"/>
    </g>
    <g transform="matrix(0.87, 0.5, -0.5, 0.87, 8.37, -4.42)" filter="url(#Path_313)">
      <path id="Path_313-2" data-name="Path 313" d="M12.583,4.443A3.478,3.478,0,0,1,11.258,5.7c-.579.456-1.217.837-1.806,1.282-.507.383-.562.622-.36,1.235.34,1.029.69,2.055,1.032,3.083.056.168.09.344.168.648a2.751,2.751,0,0,1-.562-.214c-.964-.693-1.913-1.41-2.881-2.1-.512-.364-.558-.34-1.039.011-.981.716-1.963,1.433-2.953,2.137a1.644,1.644,0,0,1-.479.128c.242-.732.454-1.374.667-2.016s.425-1.306.655-1.953a.652.652,0,0,0-.326-.857C2.276,6.317,1.209,5.5,0,4.61a3.26,3.26,0,0,1,.622-.161c1.114-.011,2.228,0,3.342-.007.83,0,.835-.006,1.112-.823C5.474,2.447,5.867,1.274,6.3,0a3.015,3.015,0,0,1,.33.554c.344,1.084.666,2.174,1,3.26.156.508.3.621.862.626,1.061.009,2.122,0,3.184,0Z" transform="translate(9.17 7.01)"/>
    </g>
  </g>
</svg>
