<svg xmlns="http://www.w3.org/2000/svg" width="55.788" height="55.786" viewBox="0 0 55.788 55.786">
  <g id="Profile_Icon" data-name="Profile Icon" transform="translate(1.788 1.788)">
    <path id="Path_33" data-name="Path 33" d="M119.91,664.788a8.369,8.369,0,1,1-8.368-8.369A8.369,8.369,0,0,1,119.91,664.788Z" transform="translate(-85.435 -640.629)" fill="#f6f6f6"/>
    <path id="Path_34" data-name="Path 34" d="M91.548,673.933a27.894,27.894,0,1,1,27.895,27.893A27.894,27.894,0,0,1,91.548,673.933Zm27.895-24.406a24.407,24.407,0,0,0-18.308,40.549,16.258,16.258,0,0,1,13.658-7.426h9.3a16.258,16.258,0,0,1,13.658,7.426,24.408,24.408,0,0,0-18.308-40.549Z" transform="translate(-93.336 -647.828)" fill="#f6f6f6" fill-rule="evenodd"/>
  </g>
</svg>
