<svg id="Settings_Dark" data-name="Settings Dark" xmlns="http://www.w3.org/2000/svg" width="16.571" height="16.571" viewBox="0 0 16.571 16.571">
  <path id="Path_369" data-name="Path 369" d="M285.964,644.94l-.68,2.071a7.487,7.487,0,0,0-1.489.615l-1.926-.971-1.44,1.44.971,1.926a7.518,7.518,0,0,0-.615,1.489l-2.071.68v2.072l2.071.68a7.536,7.536,0,0,0,.615,1.489l-.922,1.925,1.44,1.44,1.926-.971a7.674,7.674,0,0,0,1.5.615l.663,2.071h2.071l.68-2.071a7.648,7.648,0,0,0,1.5-.615l1.91.922,1.457-1.44-.987-1.925a7.675,7.675,0,0,0,.615-1.5l2.023-.615v-2.072l-2.071-.68a7.522,7.522,0,0,0-.615-1.489l.922-1.926-1.44-1.44-1.925.971a7.644,7.644,0,0,0-1.5-.615l-.615-2.071ZM287,649.6a3.625,3.625,0,1,1-3.625,3.625A3.6,3.6,0,0,1,287,649.6Z" transform="translate(-278.714 -644.94)" fill="#f6f6f6"/>
</svg>
