<svg xmlns="http://www.w3.org/2000/svg" xmlns:xlink="http://www.w3.org/1999/xlink" width="386.384" height="386.384" viewBox="0 0 386.384 386.384">
  <defs>
    <filter id="Rectangle_198" x="106.237" y="55.641" width="172.33" height="280.308" filterUnits="userSpaceOnUse">
      <feOffset dy="3" input="SourceAlpha"/>
      <feGaussianBlur stdDeviation="3" result="blur"/>
      <feFlood flood-opacity="0.949"/>
      <feComposite operator="in" in2="blur"/>
      <feComposite in="SourceGraphic"/>
    </filter>
    <filter id="Rectangle_200" x="33.402" y="184.294" width="318" height="23" filterUnits="userSpaceOnUse">
      <feOffset dy="3" input="SourceAlpha"/>
      <feGaussianBlur stdDeviation="3" result="blur-2"/>
      <feFlood flood-opacity="0.949"/>
      <feComposite operator="in" in2="blur-2"/>
      <feComposite in="SourceGraphic"/>
    </filter>
    <filter id="Rectangle_202" x="106.235" y="55.641" width="172.33" height="280.308" filterUnits="userSpaceOnUse">
      <feOffset dy="3" input="SourceAlpha"/>
      <feGaussianBlur stdDeviation="3" result="blur-3"/>
      <feFlood flood-opacity="0.949"/>
      <feComposite operator="in" in2="blur-3"/>
      <feComposite in="SourceGraphic"/>
    </filter>
    <linearGradient id="linear-gradient" x1="0.886" y1="0.669" x2="0.218" y2="0.459" gradientUnits="objectBoundingBox">
      <stop offset="0" stop-color="#010101"/>
      <stop offset="0.261" stop-color="#1a1a1a"/>
      <stop offset="0.635" stop-color="#29282b"/>
      <stop offset="1" stop-color="#252527"/>
    </linearGradient>
    <filter id="Ellipse_89" x="0" y="0" width="386.384" height="386.384" filterUnits="userSpaceOnUse">
      <feOffset dx="3" dy="3" input="SourceAlpha"/>
      <feGaussianBlur stdDeviation="3" result="blur-4"/>
      <feFlood flood-color="#171717"/>
      <feComposite operator="in" in2="blur-4"/>
      <feComposite in="SourceGraphic"/>
    </filter>
    <linearGradient id="linear-gradient-2" x1="3.88" y1="-1.377" x2="-0.344" y2="-5.948" gradientUnits="objectBoundingBox">
      <stop offset="0" stop-color="#333"/>
      <stop offset="0.261" stop-color="#0a0a0c"/>
      <stop offset="0.631" stop-color="#151516"/>
      <stop offset="1" stop-color="#151515"/>
    </linearGradient>
    <filter id="Path_295" x="56.959" y="105.196" width="42.666" height="42.717" filterUnits="userSpaceOnUse">
      <feOffset dx="1" dy="1" input="SourceAlpha"/>
      <feGaussianBlur stdDeviation="1" result="blur-5"/>
      <feFlood flood-opacity="0.627"/>
      <feComposite operator="in" in2="blur-5"/>
      <feComposite in="SourceGraphic"/>
    </filter>
    <filter id="Path_301" x="65.057" y="126.521" width="14.946" height="7.25" filterUnits="userSpaceOnUse">
      <feOffset dx="1" dy="1" input="SourceAlpha"/>
      <feGaussianBlur stdDeviation="1" result="blur-6"/>
      <feFlood flood-opacity="0.627"/>
      <feComposite operator="in" in2="blur-6"/>
      <feComposite in="SourceGraphic"/>
    </filter>
    <filter id="Path_302" x="64.862" y="124.659" width="14.238" height="7.066" filterUnits="userSpaceOnUse">
      <feOffset dx="1" dy="1" input="SourceAlpha"/>
      <feGaussianBlur stdDeviation="1" result="blur-7"/>
      <feFlood flood-opacity="0.627"/>
      <feComposite operator="in" in2="blur-7"/>
      <feComposite in="SourceGraphic"/>
    </filter>
    <filter id="Path_303" x="64.862" y="122.806" width="13.879" height="7.056" filterUnits="userSpaceOnUse">
      <feOffset dx="1" dy="1" input="SourceAlpha"/>
      <feGaussianBlur stdDeviation="1" result="blur-8"/>
      <feFlood flood-opacity="0.627"/>
      <feComposite operator="in" in2="blur-8"/>
      <feComposite in="SourceGraphic"/>
    </filter>
    <filter id="Path_296" x="172.095" y="36.63" width="42.615" height="42.835" filterUnits="userSpaceOnUse">
      <feOffset dx="1" dy="1" input="SourceAlpha"/>
      <feGaussianBlur stdDeviation="1" result="blur-9"/>
      <feFlood flood-opacity="0.627"/>
      <feComposite operator="in" in2="blur-9"/>
      <feComposite in="SourceGraphic"/>
    </filter>
    <filter id="Path_304" x="182.091" y="56.63" width="22.741" height="11.624" filterUnits="userSpaceOnUse">
      <feOffset dx="1" dy="1" input="SourceAlpha"/>
      <feGaussianBlur stdDeviation="1" result="blur-10"/>
      <feFlood flood-opacity="0.627"/>
      <feComposite operator="in" in2="blur-10"/>
      <feComposite in="SourceGraphic"/>
    </filter>
    <filter id="Path_305" x="194.383" y="47.716" width="8.912" height="8.918" filterUnits="userSpaceOnUse">
      <feOffset dx="1" dy="1" input="SourceAlpha"/>
      <feGaussianBlur stdDeviation="1" result="blur-11"/>
      <feFlood flood-opacity="0.627"/>
      <feComposite operator="in" in2="blur-11"/>
      <feComposite in="SourceGraphic"/>
    </filter>
    <filter id="Path_306" x="182.74" y="47.731" width="9.129" height="8.888" filterUnits="userSpaceOnUse">
      <feOffset dx="1" dy="1" input="SourceAlpha"/>
      <feGaussianBlur stdDeviation="1" result="blur-12"/>
      <feFlood flood-opacity="0.627"/>
      <feComposite operator="in" in2="blur-12"/>
      <feComposite in="SourceGraphic"/>
    </filter>
    <filter id="Path_297" x="286.313" y="231.888" width="42.717" height="42.84" filterUnits="userSpaceOnUse">
      <feOffset dx="1" dy="1" input="SourceAlpha"/>
      <feGaussianBlur stdDeviation="1" result="blur-13"/>
      <feFlood flood-opacity="0.627"/>
      <feComposite operator="in" in2="blur-13"/>
      <feComposite in="SourceGraphic"/>
    </filter>
    <filter id="Path_307" x="297.985" y="242.251" width="16.751" height="24.254" filterUnits="userSpaceOnUse">
      <feOffset dx="1" dy="1" input="SourceAlpha"/>
      <feGaussianBlur stdDeviation="1" result="blur-14"/>
      <feFlood flood-opacity="0.627"/>
      <feComposite operator="in" in2="blur-14"/>
      <feComposite in="SourceGraphic"/>
    </filter>
    <filter id="Path_308" x="306.034" y="252.311" width="11.495" height="13.841" filterUnits="userSpaceOnUse">
      <feOffset dx="1" dy="1" input="SourceAlpha"/>
      <feGaussianBlur stdDeviation="1" result="blur-15"/>
      <feFlood flood-opacity="0.627"/>
      <feComposite operator="in" in2="blur-15"/>
      <feComposite in="SourceGraphic"/>
    </filter>
    <filter id="Path_298" x="56.937" y="231.959" width="42.655" height="42.796" filterUnits="userSpaceOnUse">
      <feOffset dx="1" dy="1" input="SourceAlpha"/>
      <feGaussianBlur stdDeviation="1" result="blur-16"/>
      <feFlood flood-opacity="0.627"/>
      <feComposite operator="in" in2="blur-16"/>
      <feComposite in="SourceGraphic"/>
    </filter>
    <filter id="Path_309" x="67.941" y="241.454" width="17.334" height="25.579" filterUnits="userSpaceOnUse">
      <feOffset dx="1" dy="1" input="SourceAlpha"/>
      <feGaussianBlur stdDeviation="1" result="blur-17"/>
      <feFlood flood-opacity="0.627"/>
      <feComposite operator="in" in2="blur-17"/>
      <feComposite in="SourceGraphic"/>
    </filter>
    <filter id="Path_310" x="78.667" y="244.919" width="10.582" height="13.885" filterUnits="userSpaceOnUse">
      <feOffset dx="1" dy="1" input="SourceAlpha"/>
      <feGaussianBlur stdDeviation="1" result="blur-18"/>
      <feFlood flood-opacity="0.627"/>
      <feComposite operator="in" in2="blur-18"/>
      <feComposite in="SourceGraphic"/>
    </filter>
    <filter id="Path_299" x="286.347" y="103.02" width="42.76" height="42.662" filterUnits="userSpaceOnUse">
      <feOffset dx="1" dy="1" input="SourceAlpha"/>
      <feGaussianBlur stdDeviation="1" result="blur-19"/>
      <feFlood flood-opacity="0.627"/>
      <feComposite operator="in" in2="blur-19"/>
      <feComposite in="SourceGraphic"/>
    </filter>
    <filter id="Path_311" x="300.65" y="112.29" width="18.181" height="21.232" filterUnits="userSpaceOnUse">
      <feOffset dx="1" dy="1" input="SourceAlpha"/>
      <feGaussianBlur stdDeviation="1" result="blur-20"/>
      <feFlood flood-opacity="0.627"/>
      <feComposite operator="in" in2="blur-20"/>
      <feComposite in="SourceGraphic"/>
    </filter>
    <filter id="Path_312" x="297.224" y="119.906" width="8.648" height="13.165" filterUnits="userSpaceOnUse">
      <feOffset dx="1" dy="1" input="SourceAlpha"/>
      <feGaussianBlur stdDeviation="1" result="blur-21"/>
      <feFlood flood-opacity="0.627"/>
      <feComposite operator="in" in2="blur-21"/>
      <feComposite in="SourceGraphic"/>
    </filter>
    <filter id="Path_300" x="171.688" y="300.484" width="42.62" height="42.685" filterUnits="userSpaceOnUse">
      <feOffset dx="1" dy="1" input="SourceAlpha"/>
      <feGaussianBlur stdDeviation="1" result="blur-22"/>
      <feFlood flood-opacity="0.627"/>
      <feComposite operator="in" in2="blur-22"/>
      <feComposite in="SourceGraphic"/>
    </filter>
    <filter id="Path_313" x="179.464" y="307.997" width="26.959" height="25.903" filterUnits="userSpaceOnUse">
      <feOffset dx="1" dy="1" input="SourceAlpha"/>
      <feGaussianBlur stdDeviation="1" result="blur-23"/>
      <feFlood flood-opacity="0.627"/>
      <feComposite operator="in" in2="blur-23"/>
      <feComposite in="SourceGraphic"/>
    </filter>
    <clipPath id="clip-path">
      <g transform="matrix(1, 0, 0, 1, 0, 0)" filter="url(#Rectangle_198)">
        <rect id="Rectangle_198-2" data-name="Rectangle 198" width="5" height="300" transform="translate(7722 6054)"/>
      </g>
    </clipPath>
    <linearGradient id="linear-gradient-21" x1="1.037" y1="-0.195" x2="-0.452" y2="1.412" xlink:href="#linear-gradient"/>
    <filter id="Ellipse_44" x="87.271" y="84.319" width="209.453" height="209.453" filterUnits="userSpaceOnUse">
      <feOffset input="SourceAlpha"/>
      <feGaussianBlur stdDeviation="10" result="blur-24"/>
      <feFlood flood-color="#00b3fd" flood-opacity="0.412"/>
      <feComposite operator="in" in2="blur-24"/>
      <feComposite in="SourceGraphic"/>
    </filter>
    <linearGradient id="linear-gradient-22" x1="-0.316" y1="-0.265" x2="1.41" y2="1.316" gradientUnits="objectBoundingBox">
      <stop offset="0" stop-color="#8b8b8b"/>
      <stop offset="1" stop-color="#646464"/>
    </linearGradient>
    <filter id="Path_295-2" x="54.959" y="103.196" width="42.666" height="42.717" filterUnits="userSpaceOnUse">
      <feOffset dx="-1" dy="-1" input="SourceAlpha"/>
      <feGaussianBlur stdDeviation="1" result="blur-25"/>
      <feFlood flood-color="#585858" flood-opacity="0.525"/>
      <feComposite operator="in" in2="blur-25"/>
      <feComposite in="SourceGraphic"/>
    </filter>
    <filter id="Path_301-2" x="63.057" y="124.521" width="14.946" height="7.25" filterUnits="userSpaceOnUse">
      <feOffset dx="-1" dy="-1" input="SourceAlpha"/>
      <feGaussianBlur stdDeviation="1" result="blur-26"/>
      <feFlood flood-color="#585858" flood-opacity="0.525"/>
      <feComposite operator="in" in2="blur-26"/>
      <feComposite in="SourceGraphic"/>
    </filter>
    <filter id="Path_302-2" x="62.862" y="122.659" width="14.238" height="7.066" filterUnits="userSpaceOnUse">
      <feOffset dx="-1" dy="-1" input="SourceAlpha"/>
      <feGaussianBlur stdDeviation="1" result="blur-27"/>
      <feFlood flood-color="#585858" flood-opacity="0.525"/>
      <feComposite operator="in" in2="blur-27"/>
      <feComposite in="SourceGraphic"/>
    </filter>
    <filter id="Path_303-2" x="62.862" y="120.806" width="13.879" height="7.056" filterUnits="userSpaceOnUse">
      <feOffset dx="-1" dy="-1" input="SourceAlpha"/>
      <feGaussianBlur stdDeviation="1" result="blur-28"/>
      <feFlood flood-color="#585858" flood-opacity="0.525"/>
      <feComposite operator="in" in2="blur-28"/>
      <feComposite in="SourceGraphic"/>
    </filter>
    <filter id="Path_296-2" x="170.095" y="34.63" width="42.615" height="42.835" filterUnits="userSpaceOnUse">
      <feOffset dx="-1" dy="-1" input="SourceAlpha"/>
      <feGaussianBlur stdDeviation="1" result="blur-29"/>
      <feFlood flood-color="#585858" flood-opacity="0.525"/>
      <feComposite operator="in" in2="blur-29"/>
      <feComposite in="SourceGraphic"/>
    </filter>
    <filter id="Path_304-2" x="180.091" y="54.63" width="22.741" height="11.624" filterUnits="userSpaceOnUse">
      <feOffset dx="-1" dy="-1" input="SourceAlpha"/>
      <feGaussianBlur stdDeviation="1" result="blur-30"/>
      <feFlood flood-color="#585858" flood-opacity="0.525"/>
      <feComposite operator="in" in2="blur-30"/>
      <feComposite in="SourceGraphic"/>
    </filter>
    <filter id="Path_305-2" x="192.383" y="45.716" width="8.912" height="8.918" filterUnits="userSpaceOnUse">
      <feOffset dx="-1" dy="-1" input="SourceAlpha"/>
      <feGaussianBlur stdDeviation="1" result="blur-31"/>
      <feFlood flood-color="#585858" flood-opacity="0.525"/>
      <feComposite operator="in" in2="blur-31"/>
      <feComposite in="SourceGraphic"/>
    </filter>
    <filter id="Path_306-2" x="180.74" y="45.731" width="9.129" height="8.888" filterUnits="userSpaceOnUse">
      <feOffset dx="-1" dy="-1" input="SourceAlpha"/>
      <feGaussianBlur stdDeviation="1" result="blur-32"/>
      <feFlood flood-color="#585858" flood-opacity="0.525"/>
      <feComposite operator="in" in2="blur-32"/>
      <feComposite in="SourceGraphic"/>
    </filter>
    <filter id="Path_297-2" x="284.313" y="229.888" width="42.717" height="42.84" filterUnits="userSpaceOnUse">
      <feOffset dx="-1" dy="-1" input="SourceAlpha"/>
      <feGaussianBlur stdDeviation="1" result="blur-33"/>
      <feFlood flood-color="#585858" flood-opacity="0.525"/>
      <feComposite operator="in" in2="blur-33"/>
      <feComposite in="SourceGraphic"/>
    </filter>
    <filter id="Path_307-2" x="295.985" y="240.251" width="16.751" height="24.254" filterUnits="userSpaceOnUse">
      <feOffset dx="-1" dy="-1" input="SourceAlpha"/>
      <feGaussianBlur stdDeviation="1" result="blur-34"/>
      <feFlood flood-color="#585858" flood-opacity="0.525"/>
      <feComposite operator="in" in2="blur-34"/>
      <feComposite in="SourceGraphic"/>
    </filter>
    <filter id="Path_308-2" x="304.034" y="250.311" width="11.495" height="13.841" filterUnits="userSpaceOnUse">
      <feOffset dx="-1" dy="-1" input="SourceAlpha"/>
      <feGaussianBlur stdDeviation="1" result="blur-35"/>
      <feFlood flood-color="#585858" flood-opacity="0.525"/>
      <feComposite operator="in" in2="blur-35"/>
      <feComposite in="SourceGraphic"/>
    </filter>
    <filter id="Path_298-2" x="54.937" y="229.959" width="42.655" height="42.796" filterUnits="userSpaceOnUse">
      <feOffset dx="-1" dy="-1" input="SourceAlpha"/>
      <feGaussianBlur stdDeviation="1" result="blur-36"/>
      <feFlood flood-color="#585858" flood-opacity="0.525"/>
      <feComposite operator="in" in2="blur-36"/>
      <feComposite in="SourceGraphic"/>
    </filter>
    <filter id="Path_309-2" x="65.941" y="239.454" width="17.334" height="25.579" filterUnits="userSpaceOnUse">
      <feOffset dx="-1" dy="-1" input="SourceAlpha"/>
      <feGaussianBlur stdDeviation="1" result="blur-37"/>
      <feFlood flood-color="#585858" flood-opacity="0.525"/>
      <feComposite operator="in" in2="blur-37"/>
      <feComposite in="SourceGraphic"/>
    </filter>
    <filter id="Path_310-2" x="76.667" y="242.919" width="10.582" height="13.885" filterUnits="userSpaceOnUse">
      <feOffset dx="-1" dy="-1" input="SourceAlpha"/>
      <feGaussianBlur stdDeviation="1" result="blur-38"/>
      <feFlood flood-color="#585858" flood-opacity="0.525"/>
      <feComposite operator="in" in2="blur-38"/>
      <feComposite in="SourceGraphic"/>
    </filter>
    <filter id="Path_299-2" x="284.347" y="101.02" width="42.76" height="42.662" filterUnits="userSpaceOnUse">
      <feOffset dx="-1" dy="-1" input="SourceAlpha"/>
      <feGaussianBlur stdDeviation="1" result="blur-39"/>
      <feFlood flood-color="#585858" flood-opacity="0.525"/>
      <feComposite operator="in" in2="blur-39"/>
      <feComposite in="SourceGraphic"/>
    </filter>
    <filter id="Path_311-2" x="298.65" y="110.29" width="18.181" height="21.232" filterUnits="userSpaceOnUse">
      <feOffset dx="-1" dy="-1" input="SourceAlpha"/>
      <feGaussianBlur stdDeviation="1" result="blur-40"/>
      <feFlood flood-color="#585858" flood-opacity="0.525"/>
      <feComposite operator="in" in2="blur-40"/>
      <feComposite in="SourceGraphic"/>
    </filter>
    <filter id="Path_312-2" x="295.224" y="117.906" width="8.648" height="13.165" filterUnits="userSpaceOnUse">
      <feOffset dx="-1" dy="-1" input="SourceAlpha"/>
      <feGaussianBlur stdDeviation="1" result="blur-41"/>
      <feFlood flood-color="#585858" flood-opacity="0.525"/>
      <feComposite operator="in" in2="blur-41"/>
      <feComposite in="SourceGraphic"/>
    </filter>
    <filter id="Path_300-2" x="169.688" y="298.484" width="42.62" height="42.685" filterUnits="userSpaceOnUse">
      <feOffset dx="-1" dy="-1" input="SourceAlpha"/>
      <feGaussianBlur stdDeviation="1" result="blur-42"/>
      <feFlood flood-color="#585858" flood-opacity="0.525"/>
      <feComposite operator="in" in2="blur-42"/>
      <feComposite in="SourceGraphic"/>
    </filter>
    <filter id="Path_313-2" x="177.464" y="305.997" width="26.959" height="25.903" filterUnits="userSpaceOnUse">
      <feOffset dx="-1" dy="-1" input="SourceAlpha"/>
      <feGaussianBlur stdDeviation="1" result="blur-43"/>
      <feFlood flood-color="#585858" flood-opacity="0.525"/>
      <feComposite operator="in" in2="blur-43"/>
      <feComposite in="SourceGraphic"/>
    </filter>
    <linearGradient id="linear-gradient-41" x1="0.5" y1="0" x2="0.5" y2="1" xlink:href="#linear-gradient-2"/>
    <filter id="Path_365" x="152.758" y="177.496" width="79.288" height="34.598" filterUnits="userSpaceOnUse">
      <feOffset dy="2" input="SourceAlpha"/>
      <feGaussianBlur stdDeviation="1.5" result="blur-44"/>
      <feFlood flood-opacity="0.161"/>
      <feComposite operator="in" in2="blur-44"/>
      <feComposite in="SourceGraphic"/>
    </filter>
    <linearGradient id="linear-gradient-42" x1="0.5" y1="0" x2="0.5" y2="1.417" xlink:href="#linear-gradient-22"/>
    <filter id="Path_367" x="152.758" y="177.496" width="79.288" height="34.598" filterUnits="userSpaceOnUse">
      <feOffset dy="2" input="SourceAlpha"/>
      <feGaussianBlur stdDeviation="1.5" result="blur-45"/>
      <feFlood flood-opacity="0.161"/>
      <feComposite operator="in" in2="blur-45"/>
      <feComposite in="SourceGraphic"/>
    </filter>
  </defs>
  <g id="Wayvemote_dark_" data-name="Wayvemote (dark)" transform="translate(6.25 6.25)">
    <g id="Group_505" data-name="Group 505" transform="translate(-7599.157 -5393.558)">
      <g transform="matrix(1, 0, 0, 1, 7592.91, 5387.31)" filter="url(#Ellipse_89)">
        <circle id="Ellipse_89-2" data-name="Ellipse 89" cx="183.942" cy="183.942" r="183.942" transform="translate(6.25 6.25)" stroke="#6c706d" stroke-width="0.5" fill="url(#linear-gradient)"/>
      </g>
    </g>
    <g id="Group_507" data-name="Group 507" transform="translate(-7586.752 -5359.942)">
      <g transform="matrix(1, 0, 0, 1, 7580.5, 5353.69)" filter="url(#Path_295)">
        <path id="Path_295-3" data-name="Path 295" d="M.006,18.208C-.18,8.481,8.387-.048,18.374,0A18.649,18.649,0,0,1,36.666,18.494,18.637,18.637,0,0,1,17.847,36.712C8.635,36.494-.272,28.5.006,18.208Zm11.561-1.441c-.972,0-1.944.008-2.916,0-.427-.005-.934.1-1.109-.468-.109-.351.307-.577,1.12-.585,1.369-.013,2.739,0,4.108-.008.4,0,.9.007.911-.516s-.491-.523-.889-.538c-.265-.01-.53,0-.8,0-1.1,0-2.209.014-3.313-.006-.455-.008-1.13.134-1.115-.563.012-.584.637-.477,1.06-.486.751-.018,1.5.016,2.252-.03a.853.853,0,0,0,.638-.351c.072-.157-.09-.48-.233-.664A19.606,19.606,0,0,0,9.92,10.936C8.722,9.7,7.5,8.483,6.28,7.267a.667.667,0,0,0-1.126.041,9.849,9.849,0,0,0-.983,1.238,25.919,25.919,0,0,0-2.5,5.58,16.157,16.157,0,0,0,.151,8.964,16.823,16.823,0,0,0,3.053,5.931,16.14,16.14,0,0,0,3.729,3.518,16.165,16.165,0,0,0,6.51,2.744,13.8,13.8,0,0,0,4.464.259,18.382,18.382,0,0,0,5.327-1.313,37.963,37.963,0,0,0,3.42-1.918c.737-.479.735-.9.164-1.512-1.5-1.612-3.056-3.177-4.522-4.821A3.884,3.884,0,0,0,20.5,24.457a1.513,1.513,0,0,1-1.577-.978,4.066,4.066,0,0,1-.631-2.374,1.72,1.72,0,0,0-.178-1.142c-1.262-1.736-2.425-3.668-5.094-3.209A8.707,8.707,0,0,1,11.567,16.766Zm18.46,13.819a3.879,3.879,0,0,0,.5-.208,2.221,2.221,0,0,0,.3-.262,15.742,15.742,0,0,0,3.936-6.846,15.273,15.273,0,0,0,.5-7.808A24.652,24.652,0,0,0,33.915,11.2,16.323,16.323,0,0,0,31.7,7.634a16.97,16.97,0,0,0-6.978-5.211,16.368,16.368,0,0,0-8.9-1.079A18.052,18.052,0,0,0,7.289,5.18.671.671,0,0,0,7.2,6.3c.452.484.936.938,1.381,1.429q2.262,2.492,4.5,5a2.5,2.5,0,0,0,2.126.858,12.878,12.878,0,0,1,1.344.05c.395,1-.827.914-.813,1.649.617.848,1.091,1.915,2.438,2.286.053-.438.117-.77.129-1.1.021-.573-.024-1.151.02-1.722a2.62,2.62,0,0,1,1.984-2.485,14.97,14.97,0,0,1,4.787.771c1.333.318,1.872,1.033,2.83,2.15s1.045,1.512,1,2.318c-.038.7.012,1.414-.013,2.119a4.234,4.234,0,0,1-2.839,4.055,7.872,7.872,0,0,0-.845.376c-.638.354-.717.564-.221,1.114C26.663,27,28.355,28.787,30.027,30.585Z" transform="translate(58.96 107.2)" fill="url(#linear-gradient-2)"/>
      </g>
      <g transform="matrix(1, 0, 0, 1, 7580.5, 5353.69)" filter="url(#Path_301)">
        <path id="Path_301-3" data-name="Path 301" d="M4.589,0Q6.377,0,8.163,0c.433,0,.82.062.779.63-.035.487-.361.611-.948.6q-3.55-.04-7.1.015C.433,1.257.074,1.22.008.73-.06.221.309.02.751.014,2.03,0,3.31.008,4.589.008Z" transform="translate(67.06 128.52)" fill="url(#linear-gradient-2)"/>
      </g>
      <g transform="matrix(1, 0, 0, 1, 7580.5, 5353.69)" filter="url(#Path_302)">
        <path id="Path_302-3" data-name="Path 302" d="M4.018,1.064c-.923,0-1.845.006-2.768,0a2.9,2.9,0,0,1-.906-.1A.7.7,0,0,1,0,.487C-.02.383.164.164.3.117A2.365,2.365,0,0,1,1.069.008C3.09,0,5.111-.005,7.132.009c.451,0,1.124-.133,1.106.564-.015.577-.633.48-1.056.485C6.127,1.072,5.073,1.063,4.018,1.064Z" transform="translate(66.86 126.66)" fill="url(#linear-gradient-2)"/>
      </g>
      <g transform="matrix(1, 0, 0, 1, 7580.5, 5353.69)" filter="url(#Path_303)">
        <path id="Path_303-3" data-name="Path 303" d="M7.879.911a12.42,12.42,0,0,1-1.362.145Q3.43,1.024.343.939C.231.936.125.714,0,.576A1.4,1.4,0,0,1,1.3,0c1.757,0,3.513,0,5.269,0A1.24,1.24,0,0,1,7.879.911Z" transform="translate(66.86 124.81)" fill="url(#linear-gradient-2)"/>
      </g>
      <g transform="matrix(1, 0, 0, 1, 7580.5, 5353.69)" filter="url(#Path_296)">
        <path id="Path_296-3" data-name="Path 296" d="M36.6,18.483a16.24,16.24,0,0,1-2.41,9.014,17.505,17.505,0,0,1-5.323,5.928,19.377,19.377,0,0,1-5.838,2.68c-1.382.371-2.8.262-4.139.684a2.21,2.21,0,0,1-.792.02,19.785,19.785,0,0,1-11.6-4.46,17.933,17.933,0,0,1-5.323-7.667,18.129,18.129,0,0,1-1.141-7.64,17.74,17.74,0,0,1,.758-3.868A16.409,16.409,0,0,1,2.937,8.391,19.155,19.155,0,0,1,6.3,4.54,17.434,17.434,0,0,1,10.643,1.8a20.227,20.227,0,0,1,5.5-1.658,16.819,16.819,0,0,1,7.024.575,18.359,18.359,0,0,1,8.586,5.135,18.929,18.929,0,0,1,3.647,5.9A16.227,16.227,0,0,1,36.6,18.483ZM18.369,1.3a13.874,13.874,0,0,0-5.974,1A16.412,16.412,0,0,0,4.724,7.91a17.8,17.8,0,0,0-3.658,10.4,2.163,2.163,0,0,0,.037.658c.353,1.315.32,2.681.7,4.012a16.138,16.138,0,0,0,3.362,6.354,14.351,14.351,0,0,0,5.44,4.307c.486.188.9.579,1.391.734,1.085.34,2.2.591,3.3.873a15.235,15.235,0,0,0,5.392.152,15.193,15.193,0,0,0,5.479-1.783A14.572,14.572,0,0,0,30.64,30.4a24.744,24.744,0,0,0,2.854-3.934,17.088,17.088,0,0,0,2.016-7.3A16.369,16.369,0,0,0,33.393,10.2a15.525,15.525,0,0,0-6.539-6.677C24.212,2.123,21.522,1.014,18.369,1.3Z" transform="translate(174.09 38.63)" fill="url(#linear-gradient-2)"/>
      </g>
      <g transform="matrix(1, 0, 0, 1, 7580.5, 5353.69)" filter="url(#Path_304)">
        <path id="Path_304-3" data-name="Path 304" d="M0,4.487A23.43,23.43,0,0,1,3.167,1.5,6.664,6.664,0,0,1,6.916.065a26.579,26.579,0,0,1,3.113-.01,9.046,9.046,0,0,1,5.83,3.272,10.249,10.249,0,0,1,.622.849c.379.534.348.865-.111,1.242-.437.358-.664.241-1.184-.281a25.782,25.782,0,0,0-2.811-2.56,3.985,3.985,0,0,0-2.968-.888,2.719,2.719,0,0,1-.66,0c-2.838-.3-4.871,1.1-6.592,3.132C1.211,5.936,1.176,5.946,0,4.487Z" transform="translate(184.09 58.63)" fill="url(#linear-gradient-2)"/>
      </g>
      <g transform="matrix(1, 0, 0, 1, 7580.5, 5353.69)" filter="url(#Path_305)">
        <path id="Path_305-3" data-name="Path 305" d="M2.912,1.458c0,1.017-.372,1.44-1.284,1.459A1.528,1.528,0,0,1,0,1.393,1.547,1.547,0,0,1,1.628,0C2.539.019,2.912.442,2.912,1.458Z" transform="translate(196.38 49.72)" fill="url(#linear-gradient-2)"/>
      </g>
      <g transform="matrix(1, 0, 0, 1, 7580.5, 5353.69)" filter="url(#Path_306)">
        <path id="Path_306-3" data-name="Path 306" d="M3.128,1.492A1.6,1.6,0,0,1,1.639,2.887C1.065,2.921-.021,1.948,0,1.418A2.263,2.263,0,0,1,1.56,0,1.7,1.7,0,0,1,3.128,1.492Z" transform="translate(184.74 49.73)" fill="url(#linear-gradient-2)"/>
      </g>
      <g transform="matrix(1, 0, 0, 1, 7580.5, 5353.69)" filter="url(#Path_297)">
        <path id="Path_297-3" data-name="Path 297" d="M0,18.868a18.276,18.276,0,0,1,1.3-7.163A17.715,17.715,0,0,1,7.76,3.528,18.16,18.16,0,0,1,14.708.444c.472-.09.953-.135,1.431-.192.608-.072,1.218-.134,1.828-.2A2.09,2.09,0,0,1,18.359,0a20.627,20.627,0,0,1,3.4.328,20.776,20.776,0,0,1,7.214,3.158,17.93,17.93,0,0,1,5.589,6.4,18.986,18.986,0,0,1,1.943,5.694,18.658,18.658,0,0,1-.121,6.263A20.078,20.078,0,0,1,33.7,28.52a14.778,14.778,0,0,1-4.011,4.344,21.823,21.823,0,0,1-3.926,2.412,12.714,12.714,0,0,1-4.792,1.33c-.918.021-1.836.256-2.75.233a18.5,18.5,0,0,1-8.213-2.106A14.772,14.772,0,0,1,6.177,32.2,23.4,23.4,0,0,1,3.04,28.48,19.437,19.437,0,0,1,.807,23.854,21.138,21.138,0,0,1,0,18.868ZM18.366,35.517a14.667,14.667,0,0,0,6.086-.976,16.079,16.079,0,0,0,7.1-5.033,17.018,17.018,0,0,0,3.5-15.118,17.578,17.578,0,0,0-2.606-5.851,13.586,13.586,0,0,0-4.1-4.059A19.82,19.82,0,0,0,24.787,2.5a14.962,14.962,0,0,0-6.954-1.2c-.477.063-.971,0-1.456.016a3.949,3.949,0,0,0-.914.109A22.526,22.526,0,0,0,9.152,4a16.416,16.416,0,0,0-6.26,7.141A20.056,20.056,0,0,0,1.238,17.06a18.623,18.623,0,0,0,.3,4.818,15.645,15.645,0,0,0,2.109,5.371,17.316,17.316,0,0,0,2.906,3.738A15.575,15.575,0,0,0,12.221,34.5,13.743,13.743,0,0,0,18.366,35.517Z" transform="translate(288.31 233.89)" fill="url(#linear-gradient-2)"/>
      </g>
      <g transform="matrix(1, 0, 0, 1, 7580.5, 5353.69)" filter="url(#Path_307)">
        <path id="Path_307-3" data-name="Path 307" d="M.027,16.234c-.237-2.029,1.108-2.943,2.239-3.965.945-.852,1.976-1.61,2.9-2.482,1.05-.992.665-2.3.557-3.5-.015-.171-.449-.389-.715-.435-.473-.081-.974,0-1.449-.071-.6-.094-.781-.58-.414-1.074.629-.845,1.3-1.659,1.929-2.5C5.463,1.681,5.751,1.076,6.182.6c.777-.863,1.037-.784,1.662.2C8.692,2.13,9.6,3.429,10.463,4.751c.134.2.344.577.275.655a1.792,1.792,0,0,1-.759.4,1.988,1.988,0,0,1-.526.016c-1.048.048-1.4.372-1.478,1.429a9.605,9.605,0,0,0,0,1.719,3,3,0,0,1-1.2,2.655A44.881,44.881,0,0,1,3.24,14.586a1.733,1.733,0,0,0-.858,1.754,2.656,2.656,0,0,1-.032.791,1.619,1.619,0,0,1-1.172,1.123A1.6,1.6,0,0,1,.038,17.1,4.887,4.887,0,0,1,.027,16.234Z" transform="translate(299.99 244.25)" fill="url(#linear-gradient-2)"/>
      </g>
      <g transform="matrix(1, 0, 0, 1, 7580.5, 5353.69)" filter="url(#Path_308)">
        <path id="Path_308-3" data-name="Path 308" d="M5.48,5.45c0,.51.014.818,0,1.125-.039.717-.423,1.247-.9,1.266A1.545,1.545,0,0,1,3.406,6.736a5.438,5.438,0,0,1-.039-1.183,1.45,1.45,0,0,0-.68-1.332c-.773-.57-1.531-1.166-2.249-1.8A1.474,1.474,0,0,1,.864.031a.83.83,0,0,1,.71.138c1.12.981,2.219,1.988,3.3,3.008A2.7,2.7,0,0,1,5.48,5.45Z" transform="translate(308.03 254.31)" fill="url(#linear-gradient-2)"/>
      </g>
      <g transform="matrix(1, 0, 0, 1, 7580.5, 5353.69)" filter="url(#Path_298)">
        <path id="Path_298-3" data-name="Path 298" d="M36.625,18.483a18.313,18.313,0,1,1-34.649-8.34A17.666,17.666,0,0,1,8.429,3.028a17.876,17.876,0,0,1,19.78-.086,17.455,17.455,0,0,1,5.777,5.867C35.527,11.427,36.875,15.257,36.625,18.483ZM1.044,18.061a20.992,20.992,0,0,0,1.438,6.99A17.176,17.176,0,0,0,8.5,32.566a16.872,16.872,0,0,0,5.207,2.414,9.754,9.754,0,0,0,2.175.486c1.258.049,2.515.121,3.785.071a17.8,17.8,0,0,0,6.174-1.646A15.7,15.7,0,0,0,29.238,31.7a15.6,15.6,0,0,0,4.872-6.472,16.282,16.282,0,0,0,1.25-8.889,18.427,18.427,0,0,0-2.283-6.682,17.075,17.075,0,0,0-8.129-7.082A16.96,16.96,0,0,0,8.438,4.423a17.111,17.111,0,0,0-4.887,5.3A19.628,19.628,0,0,0,1.044,18.061Z" transform="translate(58.94 233.96)" fill="url(#linear-gradient-2)"/>
      </g>
      <g transform="matrix(1, 0, 0, 1, 7580.5, 5353.69)" filter="url(#Path_309)">
        <path id="Path_309-3" data-name="Path 309" d="M10.14,19.573a2.85,2.85,0,0,1-.619-.633,2.06,2.06,0,0,1-.32-1.116,2.427,2.427,0,0,0-1.059-2.275c-1.126-.915-2.269-1.812-3.361-2.766a10.438,10.438,0,0,1-1.495-1.637,1.869,1.869,0,0,1-.2-1.006c-.026-.971.007-1.944-.017-2.916C3.041,6.286,2.9,6.152,1.988,6.107c-.485-.024-.977.022-1.455-.045C-.052,5.981-.144,5.624.2,5.13,1.232,3.653,2.262,2.175,3.262.678c.554-.83,1.184-.925,1.762-.132.646.888,1.2,1.841,1.82,2.749.345.506.768.959,1.1,1.472.174.267.392.686.294.9s-.549.36-.865.418a10.443,10.443,0,0,1-1.19.024c-.776.049-.916.195-.985.943-.008.088,0,.177,0,.265-.082,2.292-.1,2.309,1.552,3.91A32.616,32.616,0,0,0,9.7,13.865a3.441,3.441,0,0,1,1.6,3.356c-.058.48.018.975-.041,1.455A1.02,1.02,0,0,1,10.14,19.573Z" transform="translate(69.94 243.45)" fill="url(#linear-gradient-2)"/>
      </g>
      <g transform="matrix(1, 0, 0, 1, 7580.5, 5353.69)" filter="url(#Path_310)">
        <path id="Path_310-3" data-name="Path 310" d="M4.551,4c0,.528.011,1.056,0,1.584C4.514,6.944,3.809,7.815,2.7,7.881A2.4,2.4,0,0,1,.087,5.851,12.378,12.378,0,0,1,.3,1.531,2.107,2.107,0,0,1,3.557.413,2.088,2.088,0,0,1,4.564,2.421,12.282,12.282,0,0,0,4.551,4Z" transform="translate(80.67 246.92)" fill="url(#linear-gradient-2)"/>
      </g>
      <g transform="matrix(1, 0, 0, 1, 7580.5, 5353.69)" filter="url(#Path_299)">
        <path id="Path_299-3" data-name="Path 299" d="M18.259,36.661A18.33,18.33,0,1,1,31.505,5.478a17.441,17.441,0,0,1,5.254,12.6A17.682,17.682,0,0,1,31.01,31.528,17.859,17.859,0,0,1,18.259,36.661Zm17.28-18.307A17.261,17.261,0,0,0,18.507,1.108,16.621,16.621,0,0,0,6.366,6.021c-3.508,3.364-5,7.65-5.309,12.414.509,9.383,7.252,16.928,17.11,17.088A17.1,17.1,0,0,0,35.539,18.353Z" transform="translate(288.35 105.02)" fill="url(#linear-gradient-2)"/>
      </g>
      <g transform="matrix(1, 0, 0, 1, 7580.5, 5353.69)" filter="url(#Path_311)">
        <path id="Path_311-3" data-name="Path 311" d="M5.978,15.232c-1.574-.124-3.149-.241-4.722-.373C.4,14.786.047,14.468.028,13.63c-.033-1.5-.049-3,.019-4.5a2.165,2.165,0,0,1,.544-1.3C2.075,6.29,2.949,4.343,4.148,2.612c.45-.65.834-1.347,1.291-1.992A1.253,1.253,0,0,1,7.167.177c.777.4.943.743.69,1.613C7.65,2.5,7.409,3.207,7.136,3.9s-.06,1.227.656,1.374a1.8,1.8,0,0,0,1.043,0,3.223,3.223,0,0,1,2.065.063,1.5,1.5,0,0,1,1.2,2.071c-.449,1.778-.888,3.566-1.192,5.373-.27,1.6-.789,2.451-2.676,2.353-.748-.039-1.5-.006-2.249-.006Z" transform="translate(302.65 114.29)" fill="url(#linear-gradient-2)"/>
      </g>
      <g transform="matrix(1, 0, 0, 1, 7580.5, 5353.69)" filter="url(#Path_312)">
        <path id="Path_312-3" data-name="Path 312" d="M2.64,3.6c0,.837.021,1.674-.006,2.51s-.189,1-1,1.05c-.263.016-.528,0-.793,0a.75.75,0,0,1-.833-.813Q-.007,3.566.008.792A.723.723,0,0,1,.739.016,6.514,6.514,0,0,1,1.4,0c1.08.015,1.213.136,1.237,1.217C2.655,2.011,2.641,2.8,2.64,3.6Z" transform="translate(299.22 121.91)" fill="url(#linear-gradient-2)"/>
      </g>
      <g transform="matrix(1, 0, 0, 1, 7580.5, 5353.69)" filter="url(#Path_300)">
        <path id="Path_300-3" data-name="Path 300" d="M36.612,18.256c.306,10.079-8.245,18.413-18.229,18.429A18.4,18.4,0,0,1,0,18.23,18.545,18.545,0,0,1,18.564,0C28.263.08,36.907,8.519,36.612,18.256ZM17.9,1.049c-.946.158-2.3.331-3.622.615A15.436,15.436,0,0,0,8.642,4.159,18.013,18.013,0,0,0,4.91,7.674a15.965,15.965,0,0,0-2.726,4.933,15.244,15.244,0,0,0-.905,7.5,21.39,21.39,0,0,0,1.842,6.138,16.722,16.722,0,0,0,6.394,6.837,17.469,17.469,0,0,0,9.162,2.5c.651,0,1.3-.23,1.956-.233a11.032,11.032,0,0,0,4.081-1A17.015,17.015,0,0,0,33,27.265a17.821,17.821,0,0,0,2.539-9.29c.01-.65-.236-1.3-.232-1.955a11.209,11.209,0,0,0-1.134-4.314,16.584,16.584,0,0,0-3.843-5.627C26.965,2.823,22.915,1.327,17.9,1.049Z" transform="translate(173.69 302.48)" fill="url(#linear-gradient-2)"/>
      </g>
      <g transform="matrix(1, 0, 0, 1, 7580.5, 5353.69)" filter="url(#Path_313)">
        <path id="Path_313-3" data-name="Path 313" d="M20.959,7.4a5.793,5.793,0,0,1-2.208,2.1c-.965.76-2.027,1.395-3.008,2.135-.845.637-.936,1.036-.6,2.057.566,1.714,1.15,3.422,1.718,5.135.093.28.15.572.279,1.079a4.582,4.582,0,0,1-.935-.357c-1.606-1.155-3.186-2.349-4.8-3.494-.854-.606-.93-.567-1.731.018-1.635,1.193-3.27,2.386-4.918,3.56a2.739,2.739,0,0,1-.8.213c.4-1.219.755-2.289,1.11-3.358.36-1.085.708-2.175,1.09-3.253A1.085,1.085,0,0,0,5.618,11.8C3.791,10.521,2.014,9.166,0,7.678A5.431,5.431,0,0,1,1.036,7.41C2.892,7.393,4.748,7.4,6.6,7.4c1.383,0,1.391-.01,1.853-1.371C9.118,4.077,9.772,2.123,10.486,0a5.021,5.021,0,0,1,.55.923c.572,1.8,1.11,3.62,1.666,5.43.259.846.5,1.035,1.436,1.043,1.768.015,3.535,0,5.3,0Z" transform="translate(181.46 310)" fill="url(#linear-gradient-2)"/>
      </g>
    </g>
    <g id="Group_509" data-name="Group 509" transform="translate(-7599.252 -5392.205)">
      <g id="Mask_Group_5" data-name="Mask Group 5" transform="translate(4197.791 -3656.323) rotate(30)" clip-path="url(#clip-path)">
        <g id="Rectangle_197" data-name="Rectangle 197" transform="translate(7722 6054)" stroke="#fafafa" stroke-width="0.3">
          <rect width="5" height="300" stroke="none"/>
          <rect x="0.15" y="0.15" width="4.7" height="299.7" fill="none"/>
        </g>
      </g>
      <g id="Mask_Group_6" data-name="Mask Group 6" transform="translate(13989.404 -2145.751) rotate(90)" clip-path="url(#clip-path)">
        <g id="Rectangle_199" data-name="Rectangle 199" transform="translate(7722 6054)" stroke="#fafafa" stroke-width="0.3">
          <rect width="5" height="300" stroke="none"/>
          <rect x="0.15" y="0.15" width="4.7" height="299.7" fill="none"/>
        </g>
      </g>
      <g id="Mask_Group_7" data-name="Mask Group 7" transform="translate(17577.016 7089.32) rotate(150)" clip-path="url(#clip-path)">
        <g id="Rectangle_201" data-name="Rectangle 201" transform="translate(7722 6054)" stroke="#fafafa" stroke-width="0.3">
          <rect width="5" height="300" stroke="none"/>
          <rect x="0.15" y="0.15" width="4.7" height="299.7" fill="none"/>
        </g>
      </g>
    </g>
    <g transform="matrix(1, 0, 0, 1, -6.25, -6.25)" filter="url(#Ellipse_44)">
      <g id="Ellipse_44-2" data-name="Ellipse 44" transform="translate(117.27 114.32)" stroke="#00b4ff" stroke-width="6" fill="url(#linear-gradient-21)">
        <circle cx="74.726" cy="74.726" r="74.726" stroke="none"/>
        <circle cx="74.726" cy="74.726" r="71.726" fill="none"/>
      </g>
    </g>
    <g id="Group_511" data-name="Group 511" transform="translate(-7586.752 -5359.942)">
      <g transform="matrix(1, 0, 0, 1, 7580.5, 5353.69)" filter="url(#Path_295-2)">
        <path id="Path_295-4" data-name="Path 295" d="M.006,18.208C-.18,8.481,8.387-.048,18.374,0A18.649,18.649,0,0,1,36.666,18.494,18.637,18.637,0,0,1,17.847,36.712C8.635,36.494-.272,28.5.006,18.208Zm11.561-1.441c-.972,0-1.944.008-2.916,0-.427-.005-.934.1-1.109-.468-.109-.351.307-.577,1.12-.585,1.369-.013,2.739,0,4.108-.008.4,0,.9.007.911-.516s-.491-.523-.889-.538c-.265-.01-.53,0-.8,0-1.1,0-2.209.014-3.313-.006-.455-.008-1.13.134-1.115-.563.012-.584.637-.477,1.06-.486.751-.018,1.5.016,2.252-.03a.853.853,0,0,0,.638-.351c.072-.157-.09-.48-.233-.664A19.606,19.606,0,0,0,9.92,10.936C8.722,9.7,7.5,8.483,6.28,7.267a.667.667,0,0,0-1.126.041,9.849,9.849,0,0,0-.983,1.238,25.919,25.919,0,0,0-2.5,5.58,16.157,16.157,0,0,0,.151,8.964,16.823,16.823,0,0,0,3.053,5.931,16.14,16.14,0,0,0,3.729,3.518,16.165,16.165,0,0,0,6.51,2.744,13.8,13.8,0,0,0,4.464.259,18.382,18.382,0,0,0,5.327-1.313,37.963,37.963,0,0,0,3.42-1.918c.737-.479.735-.9.164-1.512-1.5-1.612-3.056-3.177-4.522-4.821A3.884,3.884,0,0,0,20.5,24.457a1.513,1.513,0,0,1-1.577-.978,4.066,4.066,0,0,1-.631-2.374,1.72,1.72,0,0,0-.178-1.142c-1.262-1.736-2.425-3.668-5.094-3.209A8.707,8.707,0,0,1,11.567,16.766Zm18.46,13.819a3.879,3.879,0,0,0,.5-.208,2.221,2.221,0,0,0,.3-.262,15.742,15.742,0,0,0,3.936-6.846,15.273,15.273,0,0,0,.5-7.808A24.652,24.652,0,0,0,33.915,11.2,16.323,16.323,0,0,0,31.7,7.634a16.97,16.97,0,0,0-6.978-5.211,16.368,16.368,0,0,0-8.9-1.079A18.052,18.052,0,0,0,7.289,5.18.671.671,0,0,0,7.2,6.3c.452.484.936.938,1.381,1.429q2.262,2.492,4.5,5a2.5,2.5,0,0,0,2.126.858,12.878,12.878,0,0,1,1.344.05c.395,1-.827.914-.813,1.649.617.848,1.091,1.915,2.438,2.286.053-.438.117-.77.129-1.1.021-.573-.024-1.151.02-1.722a2.62,2.62,0,0,1,1.984-2.485,14.97,14.97,0,0,1,4.787.771c1.333.318,1.872,1.033,2.83,2.15s1.045,1.512,1,2.318c-.038.7.012,1.414-.013,2.119a4.234,4.234,0,0,1-2.839,4.055,7.872,7.872,0,0,0-.845.376c-.638.354-.717.564-.221,1.114C26.663,27,28.355,28.787,30.027,30.585Z" transform="translate(58.96 107.2)" fill="url(#linear-gradient-22)"/>
      </g>
      <g transform="matrix(1, 0, 0, 1, 7580.5, 5353.69)" filter="url(#Path_301-2)">
        <path id="Path_301-4" data-name="Path 301" d="M4.589,0Q6.377,0,8.163,0c.433,0,.82.062.779.63-.035.487-.361.611-.948.6q-3.55-.04-7.1.015C.433,1.257.074,1.22.008.73-.06.221.309.02.751.014,2.03,0,3.31.008,4.589.008Z" transform="translate(67.06 128.52)" fill="url(#linear-gradient-22)"/>
      </g>
      <g transform="matrix(1, 0, 0, 1, 7580.5, 5353.69)" filter="url(#Path_302-2)">
        <path id="Path_302-4" data-name="Path 302" d="M4.018,1.064c-.923,0-1.845.006-2.768,0a2.9,2.9,0,0,1-.906-.1A.7.7,0,0,1,0,.487C-.02.383.164.164.3.117A2.365,2.365,0,0,1,1.069.008C3.09,0,5.111-.005,7.132.009c.451,0,1.124-.133,1.106.564-.015.577-.633.48-1.056.485C6.127,1.072,5.073,1.063,4.018,1.064Z" transform="translate(66.86 126.66)" fill="url(#linear-gradient-22)"/>
      </g>
      <g transform="matrix(1, 0, 0, 1, 7580.5, 5353.69)" filter="url(#Path_303-2)">
        <path id="Path_303-4" data-name="Path 303" d="M7.879.911a12.42,12.42,0,0,1-1.362.145Q3.43,1.024.343.939C.231.936.125.714,0,.576A1.4,1.4,0,0,1,1.3,0c1.757,0,3.513,0,5.269,0A1.24,1.24,0,0,1,7.879.911Z" transform="translate(66.86 124.81)" fill="url(#linear-gradient-22)"/>
      </g>
      <g transform="matrix(1, 0, 0, 1, 7580.5, 5353.69)" filter="url(#Path_296-2)">
        <path id="Path_296-4" data-name="Path 296" d="M36.6,18.483a16.24,16.24,0,0,1-2.41,9.014,17.505,17.505,0,0,1-5.323,5.928,19.377,19.377,0,0,1-5.838,2.68c-1.382.371-2.8.262-4.139.684a2.21,2.21,0,0,1-.792.02,19.785,19.785,0,0,1-11.6-4.46,17.933,17.933,0,0,1-5.323-7.667,18.129,18.129,0,0,1-1.141-7.64,17.74,17.74,0,0,1,.758-3.868A16.409,16.409,0,0,1,2.937,8.391,19.155,19.155,0,0,1,6.3,4.54,17.434,17.434,0,0,1,10.643,1.8a20.227,20.227,0,0,1,5.5-1.658,16.819,16.819,0,0,1,7.024.575,18.359,18.359,0,0,1,8.586,5.135,18.929,18.929,0,0,1,3.647,5.9A16.227,16.227,0,0,1,36.6,18.483ZM18.369,1.3a13.874,13.874,0,0,0-5.974,1A16.412,16.412,0,0,0,4.724,7.91a17.8,17.8,0,0,0-3.658,10.4,2.163,2.163,0,0,0,.037.658c.353,1.315.32,2.681.7,4.012a16.138,16.138,0,0,0,3.362,6.354,14.351,14.351,0,0,0,5.44,4.307c.486.188.9.579,1.391.734,1.085.34,2.2.591,3.3.873a15.235,15.235,0,0,0,5.392.152,15.193,15.193,0,0,0,5.479-1.783A14.572,14.572,0,0,0,30.64,30.4a24.744,24.744,0,0,0,2.854-3.934,17.088,17.088,0,0,0,2.016-7.3A16.369,16.369,0,0,0,33.393,10.2a15.525,15.525,0,0,0-6.539-6.677C24.212,2.123,21.522,1.014,18.369,1.3Z" transform="translate(174.09 38.63)" fill="url(#linear-gradient-22)"/>
      </g>
      <g transform="matrix(1, 0, 0, 1, 7580.5, 5353.69)" filter="url(#Path_304-2)">
        <path id="Path_304-4" data-name="Path 304" d="M0,4.487A23.43,23.43,0,0,1,3.167,1.5,6.664,6.664,0,0,1,6.916.065a26.579,26.579,0,0,1,3.113-.01,9.046,9.046,0,0,1,5.83,3.272,10.249,10.249,0,0,1,.622.849c.379.534.348.865-.111,1.242-.437.358-.664.241-1.184-.281a25.782,25.782,0,0,0-2.811-2.56,3.985,3.985,0,0,0-2.968-.888,2.719,2.719,0,0,1-.66,0c-2.838-.3-4.871,1.1-6.592,3.132C1.211,5.936,1.176,5.946,0,4.487Z" transform="translate(184.09 58.63)" fill="url(#linear-gradient-22)"/>
      </g>
      <g transform="matrix(1, 0, 0, 1, 7580.5, 5353.69)" filter="url(#Path_305-2)">
        <path id="Path_305-4" data-name="Path 305" d="M2.912,1.458c0,1.017-.372,1.44-1.284,1.459A1.528,1.528,0,0,1,0,1.393,1.547,1.547,0,0,1,1.628,0C2.539.019,2.912.442,2.912,1.458Z" transform="translate(196.38 49.72)" fill="url(#linear-gradient-22)"/>
      </g>
      <g transform="matrix(1, 0, 0, 1, 7580.5, 5353.69)" filter="url(#Path_306-2)">
        <path id="Path_306-4" data-name="Path 306" d="M3.128,1.492A1.6,1.6,0,0,1,1.639,2.887C1.065,2.921-.021,1.948,0,1.418A2.263,2.263,0,0,1,1.56,0,1.7,1.7,0,0,1,3.128,1.492Z" transform="translate(184.74 49.73)" fill="url(#linear-gradient-22)"/>
      </g>
      <g transform="matrix(1, 0, 0, 1, 7580.5, 5353.69)" filter="url(#Path_297-2)">
        <path id="Path_297-4" data-name="Path 297" d="M0,18.868a18.276,18.276,0,0,1,1.3-7.163A17.715,17.715,0,0,1,7.76,3.528,18.16,18.16,0,0,1,14.708.444c.472-.09.953-.135,1.431-.192.608-.072,1.218-.134,1.828-.2A2.09,2.09,0,0,1,18.359,0a20.627,20.627,0,0,1,3.4.328,20.776,20.776,0,0,1,7.214,3.158,17.93,17.93,0,0,1,5.589,6.4,18.986,18.986,0,0,1,1.943,5.694,18.658,18.658,0,0,1-.121,6.263A20.078,20.078,0,0,1,33.7,28.52a14.778,14.778,0,0,1-4.011,4.344,21.823,21.823,0,0,1-3.926,2.412,12.714,12.714,0,0,1-4.792,1.33c-.918.021-1.836.256-2.75.233a18.5,18.5,0,0,1-8.213-2.106A14.772,14.772,0,0,1,6.177,32.2,23.4,23.4,0,0,1,3.04,28.48,19.437,19.437,0,0,1,.807,23.854,21.138,21.138,0,0,1,0,18.868ZM18.366,35.517a14.667,14.667,0,0,0,6.086-.976,16.079,16.079,0,0,0,7.1-5.033,17.018,17.018,0,0,0,3.5-15.118,17.578,17.578,0,0,0-2.606-5.851,13.586,13.586,0,0,0-4.1-4.059A19.82,19.82,0,0,0,24.787,2.5a14.962,14.962,0,0,0-6.954-1.2c-.477.063-.971,0-1.456.016a3.949,3.949,0,0,0-.914.109A22.526,22.526,0,0,0,9.152,4a16.416,16.416,0,0,0-6.26,7.141A20.056,20.056,0,0,0,1.238,17.06a18.623,18.623,0,0,0,.3,4.818,15.645,15.645,0,0,0,2.109,5.371,17.316,17.316,0,0,0,2.906,3.738A15.575,15.575,0,0,0,12.221,34.5,13.743,13.743,0,0,0,18.366,35.517Z" transform="translate(288.31 233.89)" fill="url(#linear-gradient-22)"/>
      </g>
      <g transform="matrix(1, 0, 0, 1, 7580.5, 5353.69)" filter="url(#Path_307-2)">
        <path id="Path_307-4" data-name="Path 307" d="M.027,16.234c-.237-2.029,1.108-2.943,2.239-3.965.945-.852,1.976-1.61,2.9-2.482,1.05-.992.665-2.3.557-3.5-.015-.171-.449-.389-.715-.435-.473-.081-.974,0-1.449-.071-.6-.094-.781-.58-.414-1.074.629-.845,1.3-1.659,1.929-2.5C5.463,1.681,5.751,1.076,6.182.6c.777-.863,1.037-.784,1.662.2C8.692,2.13,9.6,3.429,10.463,4.751c.134.2.344.577.275.655a1.792,1.792,0,0,1-.759.4,1.988,1.988,0,0,1-.526.016c-1.048.048-1.4.372-1.478,1.429a9.605,9.605,0,0,0,0,1.719,3,3,0,0,1-1.2,2.655A44.881,44.881,0,0,1,3.24,14.586a1.733,1.733,0,0,0-.858,1.754,2.656,2.656,0,0,1-.032.791,1.619,1.619,0,0,1-1.172,1.123A1.6,1.6,0,0,1,.038,17.1,4.887,4.887,0,0,1,.027,16.234Z" transform="translate(299.99 244.25)" fill="url(#linear-gradient-22)"/>
      </g>
      <g transform="matrix(1, 0, 0, 1, 7580.5, 5353.69)" filter="url(#Path_308-2)">
        <path id="Path_308-4" data-name="Path 308" d="M5.48,5.45c0,.51.014.818,0,1.125-.039.717-.423,1.247-.9,1.266A1.545,1.545,0,0,1,3.406,6.736a5.438,5.438,0,0,1-.039-1.183,1.45,1.45,0,0,0-.68-1.332c-.773-.57-1.531-1.166-2.249-1.8A1.474,1.474,0,0,1,.864.031a.83.83,0,0,1,.71.138c1.12.981,2.219,1.988,3.3,3.008A2.7,2.7,0,0,1,5.48,5.45Z" transform="translate(308.03 254.31)" fill="url(#linear-gradient-22)"/>
      </g>
      <g transform="matrix(1, 0, 0, 1, 7580.5, 5353.69)" filter="url(#Path_298-2)">
        <path id="Path_298-4" data-name="Path 298" d="M36.625,18.483a18.313,18.313,0,1,1-34.649-8.34A17.666,17.666,0,0,1,8.429,3.028a17.876,17.876,0,0,1,19.78-.086,17.455,17.455,0,0,1,5.777,5.867C35.527,11.427,36.875,15.257,36.625,18.483ZM1.044,18.061a20.992,20.992,0,0,0,1.438,6.99A17.176,17.176,0,0,0,8.5,32.566a16.872,16.872,0,0,0,5.207,2.414,9.754,9.754,0,0,0,2.175.486c1.258.049,2.515.121,3.785.071a17.8,17.8,0,0,0,6.174-1.646A15.7,15.7,0,0,0,29.238,31.7a15.6,15.6,0,0,0,4.872-6.472,16.282,16.282,0,0,0,1.25-8.889,18.427,18.427,0,0,0-2.283-6.682,17.075,17.075,0,0,0-8.129-7.082A16.96,16.96,0,0,0,8.438,4.423a17.111,17.111,0,0,0-4.887,5.3A19.628,19.628,0,0,0,1.044,18.061Z" transform="translate(58.94 233.96)" fill="url(#linear-gradient-22)"/>
      </g>
      <g transform="matrix(1, 0, 0, 1, 7580.5, 5353.69)" filter="url(#Path_309-2)">
        <path id="Path_309-4" data-name="Path 309" d="M10.14,19.573a2.85,2.85,0,0,1-.619-.633,2.06,2.06,0,0,1-.32-1.116,2.427,2.427,0,0,0-1.059-2.275c-1.126-.915-2.269-1.812-3.361-2.766a10.438,10.438,0,0,1-1.495-1.637,1.869,1.869,0,0,1-.2-1.006c-.026-.971.007-1.944-.017-2.916C3.041,6.286,2.9,6.152,1.988,6.107c-.485-.024-.977.022-1.455-.045C-.052,5.981-.144,5.624.2,5.13,1.232,3.653,2.262,2.175,3.262.678c.554-.83,1.184-.925,1.762-.132.646.888,1.2,1.841,1.82,2.749.345.506.768.959,1.1,1.472.174.267.392.686.294.9s-.549.36-.865.418a10.443,10.443,0,0,1-1.19.024c-.776.049-.916.195-.985.943-.008.088,0,.177,0,.265-.082,2.292-.1,2.309,1.552,3.91A32.616,32.616,0,0,0,9.7,13.865a3.441,3.441,0,0,1,1.6,3.356c-.058.48.018.975-.041,1.455A1.02,1.02,0,0,1,10.14,19.573Z" transform="translate(69.94 243.45)" fill="url(#linear-gradient-22)"/>
      </g>
      <g transform="matrix(1, 0, 0, 1, 7580.5, 5353.69)" filter="url(#Path_310-2)">
        <path id="Path_310-4" data-name="Path 310" d="M4.551,4c0,.528.011,1.056,0,1.584C4.514,6.944,3.809,7.815,2.7,7.881A2.4,2.4,0,0,1,.087,5.851,12.378,12.378,0,0,1,.3,1.531,2.107,2.107,0,0,1,3.557.413,2.088,2.088,0,0,1,4.564,2.421,12.282,12.282,0,0,0,4.551,4Z" transform="translate(80.67 246.92)" fill="url(#linear-gradient-22)"/>
      </g>
      <g transform="matrix(1, 0, 0, 1, 7580.5, 5353.69)" filter="url(#Path_299-2)">
        <path id="Path_299-4" data-name="Path 299" d="M18.259,36.661A18.33,18.33,0,1,1,31.505,5.478a17.441,17.441,0,0,1,5.254,12.6A17.682,17.682,0,0,1,31.01,31.528,17.859,17.859,0,0,1,18.259,36.661Zm17.28-18.307A17.261,17.261,0,0,0,18.507,1.108,16.621,16.621,0,0,0,6.366,6.021c-3.508,3.364-5,7.65-5.309,12.414.509,9.383,7.252,16.928,17.11,17.088A17.1,17.1,0,0,0,35.539,18.353Z" transform="translate(288.35 105.02)" fill="url(#linear-gradient-22)"/>
      </g>
      <g transform="matrix(1, 0, 0, 1, 7580.5, 5353.69)" filter="url(#Path_311-2)">
        <path id="Path_311-4" data-name="Path 311" d="M5.978,15.232c-1.574-.124-3.149-.241-4.722-.373C.4,14.786.047,14.468.028,13.63c-.033-1.5-.049-3,.019-4.5a2.165,2.165,0,0,1,.544-1.3C2.075,6.29,2.949,4.343,4.148,2.612c.45-.65.834-1.347,1.291-1.992A1.253,1.253,0,0,1,7.167.177c.777.4.943.743.69,1.613C7.65,2.5,7.409,3.207,7.136,3.9s-.06,1.227.656,1.374a1.8,1.8,0,0,0,1.043,0,3.223,3.223,0,0,1,2.065.063,1.5,1.5,0,0,1,1.2,2.071c-.449,1.778-.888,3.566-1.192,5.373-.27,1.6-.789,2.451-2.676,2.353-.748-.039-1.5-.006-2.249-.006Z" transform="translate(302.65 114.29)" fill="url(#linear-gradient-22)"/>
      </g>
      <g transform="matrix(1, 0, 0, 1, 7580.5, 5353.69)" filter="url(#Path_312-2)">
        <path id="Path_312-4" data-name="Path 312" d="M2.64,3.6c0,.837.021,1.674-.006,2.51s-.189,1-1,1.05c-.263.016-.528,0-.793,0a.75.75,0,0,1-.833-.813Q-.007,3.566.008.792A.723.723,0,0,1,.739.016,6.514,6.514,0,0,1,1.4,0c1.08.015,1.213.136,1.237,1.217C2.655,2.011,2.641,2.8,2.64,3.6Z" transform="translate(299.22 121.91)" fill="url(#linear-gradient-22)"/>
      </g>
      <g transform="matrix(1, 0, 0, 1, 7580.5, 5353.69)" filter="url(#Path_300-2)">
        <path id="Path_300-4" data-name="Path 300" d="M36.612,18.256c.306,10.079-8.245,18.413-18.229,18.429A18.4,18.4,0,0,1,0,18.23,18.545,18.545,0,0,1,18.564,0C28.263.08,36.907,8.519,36.612,18.256ZM17.9,1.049c-.946.158-2.3.331-3.622.615A15.436,15.436,0,0,0,8.642,4.159,18.013,18.013,0,0,0,4.91,7.674a15.965,15.965,0,0,0-2.726,4.933,15.244,15.244,0,0,0-.905,7.5,21.39,21.39,0,0,0,1.842,6.138,16.722,16.722,0,0,0,6.394,6.837,17.469,17.469,0,0,0,9.162,2.5c.651,0,1.3-.23,1.956-.233a11.032,11.032,0,0,0,4.081-1A17.015,17.015,0,0,0,33,27.265a17.821,17.821,0,0,0,2.539-9.29c.01-.65-.236-1.3-.232-1.955a11.209,11.209,0,0,0-1.134-4.314,16.584,16.584,0,0,0-3.843-5.627C26.965,2.823,22.915,1.327,17.9,1.049Z" transform="translate(173.69 302.48)" fill="url(#linear-gradient-22)"/>
      </g>
      <g transform="matrix(1, 0, 0, 1, 7580.5, 5353.69)" filter="url(#Path_313-2)">
        <path id="Path_313-4" data-name="Path 313" d="M20.959,7.4a5.793,5.793,0,0,1-2.208,2.1c-.965.76-2.027,1.395-3.008,2.135-.845.637-.936,1.036-.6,2.057.566,1.714,1.15,3.422,1.718,5.135.093.28.15.572.279,1.079a4.582,4.582,0,0,1-.935-.357c-1.606-1.155-3.186-2.349-4.8-3.494-.854-.606-.93-.567-1.731.018-1.635,1.193-3.27,2.386-4.918,3.56a2.739,2.739,0,0,1-.8.213c.4-1.219.755-2.289,1.11-3.358.36-1.085.708-2.175,1.09-3.253A1.085,1.085,0,0,0,5.618,11.8C3.791,10.521,2.014,9.166,0,7.678A5.431,5.431,0,0,1,1.036,7.41C2.892,7.393,4.748,7.4,6.6,7.4c1.383,0,1.391-.01,1.853-1.371C9.118,4.077,9.772,2.123,10.486,0a5.021,5.021,0,0,1,.55.923c.572,1.8,1.11,3.62,1.666,5.43.259.846.5,1.035,1.436,1.043,1.768.015,3.535,0,5.3,0Z" transform="translate(181.46 310)" fill="url(#linear-gradient-22)"/>
      </g>
    </g>
    <g transform="matrix(1, 0, 0, 1, -6.25, -6.25)" filter="url(#Path_365)">
      <path id="Path_365-2" data-name="Path 365" d="M-42.013,0H-55.6c-2.154,0-3.834,1.179-5.241,3.01C-62.248,1.179-63.929,0-66.083,0h-29.9a15.518,15.518,0,0,1,1.849.556A22.024,22.024,0,0,1-91.746,1.6c3.645,1.98,5.242,6.709,7.03,11.312C-82.294,19.149-79.789,25.6-74.431,25.6c2.994,0,5.1-2.014,6.794-4.882a14.746,14.746,0,0,0,1.82,2.507l.011.012c.052.056.1.111.157.166l.019.019c.052.053.1.106.157.157l.018.017c.054.053.108.1.163.155l0,0a8.158,8.158,0,0,0,.7.579l.04.03c.045.033.091.065.136.1l.067.047.127.084.08.051c.04.026.082.051.123.075l.088.052.12.069.1.051c.039.021.078.042.118.061l.1.051.114.055.117.051.105.046c.073.029.145.058.219.084l.089.031c.048.016.1.033.143.048l.1.03.137.04.1.027.137.033.107.024.139.028.108.019.144.022.107.015.154.016.1.01.174.011.087,0c.087,0,.175.006.264.006s.177,0,.264-.006l.087,0,.173-.011.1-.01.154-.016.107-.015.145-.022.108-.019.139-.028.107-.024c.046-.01.092-.021.137-.033l.1-.027c.046-.012.092-.026.137-.04l.1-.03c.048-.015.1-.032.143-.048l.089-.031c.074-.026.147-.055.219-.084l.105-.046.117-.051.114-.055.1-.051.118-.061.1-.051.121-.069.088-.052.123-.075.08-.051.127-.084.067-.047c.046-.031.091-.063.136-.1l.041-.03a8.246,8.246,0,0,0,.7-.579l0,0c.055-.051.109-.1.162-.155l.019-.017.157-.157.019-.019c.053-.055.105-.11.157-.166l.011-.012a14.807,14.807,0,0,0,1.82-2.507c1.7,2.868,3.8,4.882,6.793,4.882,5.359,0,7.863-6.449,10.286-12.686,1.788-4.6,3.386-9.332,7.03-11.312A22.028,22.028,0,0,1-27.547.556,15.486,15.486,0,0,1-25.7,0ZM-55.6,1.359h9.921l-.007.006c-.073.059-.145.121-.216.183l-.055.048q-.1.091-.2.186l-.019.017c-.073.07-.145.142-.217.215l-.047.048q-.091.1-.182.194l-.034.037q-.105.116-.209.238l-.034.04q-.089.105-.178.215l-.039.048c-.068.086-.136.173-.2.261l-.009.012c-.064.084-.126.17-.188.258l-.038.053q-.2.277-.386.57l-.033.051c-.059.092-.118.185-.176.279l-.012.02c-.064.1-.127.207-.188.312l-.024.04q-.083.143-.166.288l-.022.038c-.062.109-.123.219-.183.33l-.007.013q-.085.158-.17.318l-.025.048q-.176.337-.347.685l-.024.048q-.172.351-.339.712l-.019.04q-.079.17-.157.342l-.011.024c-.056.125-.112.25-.167.375l-.01.023q-.078.176-.154.354l-.017.039q-.162.375-.321.758l-.02.048q-.159.381-.314.766l-.019.047c-.324.8-.64,1.616-.955,2.426l-.261.672-.011.029q-.116.3-.234.6l-.057.146q-.1.261-.206.52l-.073.182c-.064.159-.128.317-.192.475-.031.079-.064.157-.1.236l-.186.449-.083.2q-.1.229-.194.455c-.034.079-.067.157-.1.234-.062.143-.125.286-.188.427l-.086.191c-.069.152-.138.3-.208.453l-.049.1c-.791-1.676-1.51-3.528-2.222-5.36A50.313,50.313,0,0,0-60.025,4.19c1.232-1.721,2.66-2.831,4.423-2.831m.737,18.04-.026.047c-.035.064-.071.128-.107.192l-.016.028c-.119.211-.241.417-.364.617l-.012.02c-.034.055-.069.11-.1.164l-.04.063c-.032.05-.064.1-.1.149l-.048.073c-.031.047-.063.1-.1.142l-.049.073-.1.14-.044.062c-.112.157-.226.31-.342.457l-.052.067-.093.115-.064.078c-.03.036-.06.072-.091.107l-.068.079-.091.1-.071.078-.091.1-.074.077-.146.147-.1.1-.086.079-.085.078-.087.075-.087.074-.088.072c-.03.024-.06.048-.09.071l-.087.067-.1.071-.083.06-.114.077-.068.046c-.059.038-.119.075-.179.111l-.074.043-.115.065-.082.043-.111.056-.085.04-.114.051-.083.036-.124.048-.076.029c-.055.02-.11.038-.166.056l-.037.012c-.067.021-.136.04-.2.058l-.069.017-.141.033-.082.016-.133.024-.085.013-.136.017-.083.009c-.049.005-.1.008-.15.011l-.072.005c-.075,0-.15.006-.225.006s-.151,0-.225-.006l-.073-.005c-.05,0-.1-.006-.15-.011l-.084-.009-.136-.017-.085-.013-.133-.024-.082-.016-.141-.033-.069-.017c-.069-.018-.136-.037-.2-.058l-.037-.012c-.055-.017-.111-.036-.165-.056l-.076-.029-.123-.048-.083-.036-.114-.051-.085-.04-.111-.056-.083-.043-.115-.065-.074-.043c-.06-.035-.119-.073-.178-.111l-.068-.046c-.038-.025-.076-.051-.114-.077l-.084-.06-.1-.071-.086-.067-.091-.071-.087-.072-.087-.074-.087-.075-.085-.078-.085-.079c-.034-.031-.066-.064-.1-.1l-.146-.147-.074-.077-.091-.1-.071-.078-.091-.1-.068-.079-.091-.107-.064-.078-.093-.115-.053-.067c-.115-.147-.229-.3-.341-.457l-.044-.062c-.033-.046-.065-.093-.1-.14l-.049-.073-.1-.142-.048-.073-.1-.149-.04-.063-.1-.164-.012-.02c-.124-.2-.245-.407-.365-.617l-.015-.028-.107-.192-.026-.047-.048-.088c1-1.963,1.866-4.194,2.723-6.4a55.164,55.164,0,0,1,3.3-7.448,55.091,55.091,0,0,1,3.3,7.448c.858,2.206,1.725,4.437,2.724,6.4l-.048.088M-76,1.359h9.921c1.764,0,3.192,1.11,4.424,2.831a50.22,50.22,0,0,0-3.754,8.237c-.712,1.831-1.432,3.684-2.222,5.36l-.049-.1q-.1-.225-.209-.453l-.085-.191c-.064-.141-.126-.284-.189-.427l-.1-.234q-.1-.226-.194-.455l-.083-.2q-.094-.224-.187-.452l-.094-.23q-.1-.239-.193-.479l-.073-.182-.206-.52-.057-.146-.233-.6-.011-.029-.261-.672c-.315-.81-.631-1.624-.954-2.426l-.019-.047q-.155-.385-.313-.766l-.02-.048q-.159-.382-.321-.758l-.017-.039q-.077-.178-.155-.354l-.01-.023q-.084-.188-.168-.375l-.011-.024-.157-.342-.019-.04q-.168-.361-.34-.712l-.024-.048q-.171-.348-.347-.685l-.025-.048q-.084-.16-.17-.318l-.007-.013q-.091-.166-.183-.33l-.022-.038q-.083-.146-.167-.288l-.023-.04c-.062-.105-.125-.21-.188-.312l-.012-.02c-.058-.094-.117-.187-.176-.279l-.033-.051q-.19-.293-.386-.57l-.038-.053q-.094-.131-.189-.258l-.008-.012c-.067-.089-.135-.175-.2-.261l-.039-.048q-.088-.11-.178-.215l-.033-.04c-.069-.081-.138-.16-.209-.238l-.034-.037q-.09-.1-.182-.194l-.047-.048c-.071-.073-.144-.145-.217-.215l-.018-.017q-.1-.094-.2-.186l-.054-.048c-.072-.062-.144-.124-.217-.183L-76,1.359m7.6,17.953c-1.561,2.871-3.435,4.928-6.025,4.928-4.429,0-6.762-6.008-9.02-11.823-1.7-4.383-3.448-8.874-6.142-11.058h9.921c4.056,0,6.337,5.872,8.544,11.554q.193.5.387.993.1.246.193.492l.111.281q.116.291.232.58.049.122.1.243.118.293.239.583l.1.232q.119.284.24.565c.034.079.068.158.1.236q.122.281.246.558l.1.218q.13.285.263.565c.028.058.055.118.083.175q.143.3.29.589c.015.029.029.06.044.089m30.172-6.895c-2.258,5.815-4.591,11.823-9.02,11.823-2.59,0-4.464-2.057-6.025-4.928.015-.029.029-.06.044-.089q.147-.291.29-.589l.084-.175q.132-.28.263-.565l.1-.218q.125-.277.246-.558l.1-.236q.121-.28.238-.563l.1-.236c.08-.192.159-.386.238-.58l.1-.243c.077-.192.155-.386.231-.58l.111-.281q.1-.245.193-.492.194-.5.387-.993c2.206-5.682,4.488-11.554,8.544-11.554h9.921c-2.695,2.183-4.439,6.675-6.142,11.058" transform="translate(253.24 180)" fill="url(#linear-gradient-41)"/>
    </g>
    <g transform="matrix(1, 0, 0, 1, -6.25, -6.25)" filter="url(#Path_367)">
      <path id="Path_367-2" data-name="Path 367" d="M-42.013,0H-55.6c-2.154,0-3.834,1.179-5.241,3.01C-62.248,1.179-63.929,0-66.083,0h-29.9a15.518,15.518,0,0,1,1.849.556A22.024,22.024,0,0,1-91.746,1.6c3.645,1.98,5.242,6.709,7.03,11.312C-82.294,19.149-79.789,25.6-74.431,25.6c2.994,0,5.1-2.014,6.794-4.882a14.746,14.746,0,0,0,1.82,2.507l.011.012c.052.056.1.111.157.166l.019.019c.052.053.1.106.157.157l.018.017c.054.053.108.1.163.155l0,0a8.158,8.158,0,0,0,.7.579l.04.03c.045.033.091.065.136.1l.067.047.127.084.08.051c.04.026.082.051.123.075l.088.052.12.069.1.051c.039.021.078.042.118.061l.1.051.114.055.117.051.105.046c.073.029.145.058.219.084l.089.031c.048.016.1.033.143.048l.1.03.137.04.1.027.137.033.107.024.139.028.108.019.144.022.107.015.154.016.1.01.174.011.087,0c.087,0,.175.006.264.006s.177,0,.264-.006l.087,0,.173-.011.1-.01.154-.016.107-.015.145-.022.108-.019.139-.028.107-.024c.046-.01.092-.021.137-.033l.1-.027c.046-.012.092-.026.137-.04l.1-.03c.048-.015.1-.032.143-.048l.089-.031c.074-.026.147-.055.219-.084l.105-.046.117-.051.114-.055.1-.051.118-.061.1-.051.121-.069.088-.052.123-.075.08-.051.127-.084.067-.047c.046-.031.091-.063.136-.1l.041-.03a8.246,8.246,0,0,0,.7-.579l0,0c.055-.051.109-.1.162-.155l.019-.017.157-.157.019-.019c.053-.055.105-.11.157-.166l.011-.012a14.807,14.807,0,0,0,1.82-2.507c1.7,2.868,3.8,4.882,6.793,4.882,5.359,0,7.863-6.449,10.286-12.686,1.788-4.6,3.386-9.332,7.03-11.312A22.028,22.028,0,0,1-27.547.556,15.486,15.486,0,0,1-25.7,0ZM-55.6,1.359h9.921l-.007.006c-.073.059-.145.121-.216.183l-.055.048q-.1.091-.2.186l-.019.017c-.073.07-.145.142-.217.215l-.047.048q-.091.1-.182.194l-.034.037q-.105.116-.209.238l-.034.04q-.089.105-.178.215l-.039.048c-.068.086-.136.173-.2.261l-.009.012c-.064.084-.126.17-.188.258l-.038.053q-.2.277-.386.57l-.033.051c-.059.092-.118.185-.176.279l-.012.02c-.064.1-.127.207-.188.312l-.024.04q-.083.143-.166.288l-.022.038c-.062.109-.123.219-.183.33l-.007.013q-.085.158-.17.318l-.025.048q-.176.337-.347.685l-.024.048q-.172.351-.339.712l-.019.04q-.079.17-.157.342l-.011.024c-.056.125-.112.25-.167.375l-.01.023q-.078.176-.154.354l-.017.039q-.162.375-.321.758l-.02.048q-.159.381-.314.766l-.019.047c-.324.8-.64,1.616-.955,2.426l-.261.672-.011.029q-.116.3-.234.6l-.057.146q-.1.261-.206.52l-.073.182c-.064.159-.128.317-.192.475-.031.079-.064.157-.1.236l-.186.449-.083.2q-.1.229-.194.455c-.034.079-.067.157-.1.234-.062.143-.125.286-.188.427l-.086.191c-.069.152-.138.3-.208.453l-.049.1c-.791-1.676-1.51-3.528-2.222-5.36A50.313,50.313,0,0,0-60.025,4.19c1.232-1.721,2.66-2.831,4.423-2.831m.737,18.04-.026.047c-.035.064-.071.128-.107.192l-.016.028c-.119.211-.241.417-.364.617l-.012.02c-.034.055-.069.11-.1.164l-.04.063c-.032.05-.064.1-.1.149l-.048.073c-.031.047-.063.1-.1.142l-.049.073-.1.14-.044.062c-.112.157-.226.31-.342.457l-.052.067-.093.115-.064.078c-.03.036-.06.072-.091.107l-.068.079-.091.1-.071.078-.091.1-.074.077-.146.147-.1.1-.086.079-.085.078-.087.075-.087.074-.088.072c-.03.024-.06.048-.09.071l-.087.067-.1.071-.083.06-.114.077-.068.046c-.059.038-.119.075-.179.111l-.074.043-.115.065-.082.043-.111.056-.085.04-.114.051-.083.036-.124.048-.076.029c-.055.02-.11.038-.166.056l-.037.012c-.067.021-.136.04-.2.058l-.069.017-.141.033-.082.016-.133.024-.085.013-.136.017-.083.009c-.049.005-.1.008-.15.011l-.072.005c-.075,0-.15.006-.225.006s-.151,0-.225-.006l-.073-.005c-.05,0-.1-.006-.15-.011l-.084-.009-.136-.017-.085-.013-.133-.024-.082-.016-.141-.033-.069-.017c-.069-.018-.136-.037-.2-.058l-.037-.012c-.055-.017-.111-.036-.165-.056l-.076-.029-.123-.048-.083-.036-.114-.051-.085-.04-.111-.056-.083-.043-.115-.065-.074-.043c-.06-.035-.119-.073-.178-.111l-.068-.046c-.038-.025-.076-.051-.114-.077l-.084-.06-.1-.071-.086-.067-.091-.071-.087-.072-.087-.074-.087-.075-.085-.078-.085-.079c-.034-.031-.066-.064-.1-.1l-.146-.147-.074-.077-.091-.1-.071-.078-.091-.1-.068-.079-.091-.107-.064-.078-.093-.115-.053-.067c-.115-.147-.229-.3-.341-.457l-.044-.062c-.033-.046-.065-.093-.1-.14l-.049-.073-.1-.142-.048-.073-.1-.149-.04-.063-.1-.164-.012-.02c-.124-.2-.245-.407-.365-.617l-.015-.028-.107-.192-.026-.047-.048-.088c1-1.963,1.866-4.194,2.723-6.4a55.164,55.164,0,0,1,3.3-7.448,55.091,55.091,0,0,1,3.3,7.448c.858,2.206,1.725,4.437,2.724,6.4l-.048.088M-76,1.359h9.921c1.764,0,3.192,1.11,4.424,2.831a50.22,50.22,0,0,0-3.754,8.237c-.712,1.831-1.432,3.684-2.222,5.36l-.049-.1q-.1-.225-.209-.453l-.085-.191c-.064-.141-.126-.284-.189-.427l-.1-.234q-.1-.226-.194-.455l-.083-.2q-.094-.224-.187-.452l-.094-.23q-.1-.239-.193-.479l-.073-.182-.206-.52-.057-.146-.233-.6-.011-.029-.261-.672c-.315-.81-.631-1.624-.954-2.426l-.019-.047q-.155-.385-.313-.766l-.02-.048q-.159-.382-.321-.758l-.017-.039q-.077-.178-.155-.354l-.01-.023q-.084-.188-.168-.375l-.011-.024-.157-.342-.019-.04q-.168-.361-.34-.712l-.024-.048q-.171-.348-.347-.685l-.025-.048q-.084-.16-.17-.318l-.007-.013q-.091-.166-.183-.33l-.022-.038q-.083-.146-.167-.288l-.023-.04c-.062-.105-.125-.21-.188-.312l-.012-.02c-.058-.094-.117-.187-.176-.279l-.033-.051q-.19-.293-.386-.57l-.038-.053q-.094-.131-.189-.258l-.008-.012c-.067-.089-.135-.175-.2-.261l-.039-.048q-.088-.11-.178-.215l-.033-.04c-.069-.081-.138-.16-.209-.238l-.034-.037q-.09-.1-.182-.194l-.047-.048c-.071-.073-.144-.145-.217-.215l-.018-.017q-.1-.094-.2-.186l-.054-.048c-.072-.062-.144-.124-.217-.183L-76,1.359m7.6,17.953c-1.561,2.871-3.435,4.928-6.025,4.928-4.429,0-6.762-6.008-9.02-11.823-1.7-4.383-3.448-8.874-6.142-11.058h9.921c4.056,0,6.337,5.872,8.544,11.554q.193.5.387.993.1.246.193.492l.111.281q.116.291.232.58.049.122.1.243.118.293.239.583l.1.232q.119.284.24.565c.034.079.068.158.1.236q.122.281.246.558l.1.218q.13.285.263.565c.028.058.055.118.083.175q.143.3.29.589c.015.029.029.06.044.089m30.172-6.895c-2.258,5.815-4.591,11.823-9.02,11.823-2.59,0-4.464-2.057-6.025-4.928.015-.029.029-.06.044-.089q.147-.291.29-.589l.084-.175q.132-.28.263-.565l.1-.218q.125-.277.246-.558l.1-.236q.121-.28.238-.563l.1-.236c.08-.192.159-.386.238-.58l.1-.243c.077-.192.155-.386.231-.58l.111-.281q.1-.245.193-.492.194-.5.387-.993c2.206-5.682,4.488-11.554,8.544-11.554h9.921c-2.695,2.183-4.439,6.675-6.142,11.058" transform="translate(253.24 180)" fill="url(#linear-gradient-42)"/>
    </g>
  </g>
</svg>
